<?xml version="1.0" standalone="no"?>
<svg version="1.1" id="Layer_1" xmlns="http://www.w3.org/2000/svg" xmlns:xlink="http://www.w3.org/1999/xlink" x="0px" y="0px" width="595.28px" height="595.28px" viewBox="0 0 595.28 595.28" enable-background="new 0 0 595.28 595.28" xml:space="preserve">
<path id="color_x5F_2" fill="#FBC02D" d="M523.818,358.349c-5.478-0.057-10.896-0.287-16.341,0.473c0-3.084,0-6.169,0-9.254
	c0-0.391-2.898,0.002-2.898,0.777c0,6.393,0,12.785,0,19.177c-1.744,0.403-3.672,0.767-4.706-0.546
	c-0.105-0.134-0.28-0.211-0.49-0.246c-1.481-2.891-3.504-7.723-7.501-6.331c-0.032,0.011-0.056,0.027-0.087,0.039
	c-4.766-3.102-10.21-4.771-15.786-5.151c-7.838-1.68-16.353,2.072-19.815,3.865c1.189-4.595,0.817-9.816,0.918-14.502
	c0-0.002,0.001-0.003,0.001-0.004c0-0.02,0-0.04,0-0.06c-0.002-0.7-2.877-0.192-2.898,0.776c-0.049,2.194,0.009,4.498-0.037,6.797
	c-3.734-0.983-7.739-0.74-11.602-1.117c-0.229-0.101-0.55-0.142-0.895-0.123c4.451-12.243,8.111-24.058,22.49-26.032
	c-2.082,1.972-3.515,4.665-2.609,7.571c1.39,4.464,7.546,4.416,11.191,3.815c0.135-0.022,0.263-0.063,0.387-0.11
	c0.046,0.006,0.094,0.007,0.141,0.008c5.777,1.726,12.629,1.66,16.573-3.587c2.533-3.37,2.989-8.32,1.829-12.499l0.187-0.087
	c3.54,0.705,7.006,1.735,10.435,2.869c4.546,1.687,9.852,3.838,13.895,6.014C524.07,336.984,524.813,349.132,523.818,358.349z
	 M504.278,390.021c0.051,5.521-1.402,10.552-3.964,14.842c4.052,0.712,8.332,0.501,12.37-0.383c0.37-4.378,0.664-8.775,0.696-13.168
	C510.459,391.781,507.3,391.132,504.278,390.021z M361.175,389.657c0.223,0.02,0.477,0.041,0.77,0.062
	c-0.252-0.076-0.494-0.157-0.728-0.244C361.202,389.535,361.189,389.596,361.175,389.657z M380.987,407.054
	c1.968-1.116,3.502-2.105,3.895-2.664c-0.042-0.148-0.088-0.296-0.13-0.444C383.581,405.099,382.317,406.123,380.987,407.054z
	 M382.13,385.576c-0.02,0.088-0.036,0.176-0.058,0.264c0.204,0.711,0.424,1.424,0.65,2.138L382.13,385.576z M383.628,402.568
	c0.104-0.123,0.337-0.238,0.623-0.334c-1.436-4.695-3.163-9.317-4.59-14.009c-0.452,0.243-0.925,0.466-1.414,0.671
	c-0.901,7.95-4.861,15.132-7.412,22.695C375.508,409.142,380.157,406.688,383.628,402.568z M376.532,387.748
	c0.742-0.271,1.447-0.595,2.089-0.996c0.152-0.095,0.339-0.159,0.538-0.201c-0.038-0.163,0-0.317,0.089-0.462
	c2.226-9.517,0.952-19.732-6.515-26.711c-5.574-5.211-12.679-8.183-20.221-8.854c1.295,3.952-0.033,8.894-2.722,11.943
	c-1.626,1.844-3.946,3.269-6.492,2.709c-2.151-0.473-3.57-2.173-4.585-4.071c-2.187,4.238-7.086,6.805-11.672,4.098
	c-4.809-2.838-4.098-8.064-1.456-11.996c-9.785,2.539-20.034,8.584-24.7,17.614c-1.685,3.262-5.928,14.966,0.454,16.386
	c0.732,0.162,1.497,0.252,2.271,0.311l6.5-0.464c1.244-0.248,2.451-0.571,3.595-0.943c-0.541-3.394-0.928-6.806-0.982-10.249
	c-0.017-1.078,2.885-1.623,2.898-0.775c0.079,5.01,0.85,9.933,1.809,14.829c0.246,0.017,0.408,0.072,0.403,0.173
	c-0.021,0.463-0.051,0.938-0.086,1.421c0.764,3.755,1.606,7.499,2.306,11.258c0.432,2.319,1.136,5.288,1.355,8.218
	c8.405,7.08,22.542,5.682,32.335,2.745c0.486-0.146,0.853-0.126,1.108-0.024c2.626-8.293,1.468-17.212,3.897-25.562
	c-4.109-3.192-3.269-9.137-3.167-14.655c0.02-1.071,2.935-1.636,2.91-0.316c-0.085,4.619-1.218,11.105,2.885,13.871
	c0.122,0.045,0.218,0.109,0.278,0.195c0.66,0.394,1.441,0.701,2.373,0.896c3.57,0.747,8.338,1.004,12.129-0.248
	C376.275,387.831,376.403,387.786,376.532,387.748z M176.739,353.347c0.227-0.381,0.491-0.775,0.783-1.179
	c-0.252,0.174-0.501,0.356-0.756,0.521c-0.057,0.037-0.119,0.066-0.182,0.095C176.637,352.971,176.688,353.159,176.739,353.347z
	 M163.53,321.618c-0.334,0.738-1.046,1.339-2.406,1.511c-2.723,1.136-6.058,1.015-9.032,0.386
	c-5.215,7.113-21.175,5.471-19.502-4.508c-10.929-0.071-18.096,10.483-21.675,19.672c-1.233,3.166-2.381,6.493-2.792,9.884
	c-0.935,7.701,13.728,6.118,17.269,4.876c0.279-0.098,0.575-0.126,0.853-0.107c0.093-4.924,0.717-9.784,1.411-14.656
	c0.133-0.929,3.044-1.466,2.891-0.389c-0.701,4.918-1.371,9.833-1.424,14.809c-0.007,0.629-0.993,1.065-1.813,1.159
	c-0.116,0.158-0.349,0.317-0.751,0.458c-0.68,0.238-1.406,0.466-2.16,0.676c-1.833,8.963-3.487,18.471-3.326,27.813
	c0.071,0.011,0.142,0.024,0.208,0.047c17.832,6.126,39.907,6.646,57.069-2.388c-1.383-15.018-4.222-31.198-11.254-44.605
	c-0.697-1.329,2.071-2.378,2.656-1.264c2.586,4.931,4.615,10.211,6.229,15.661c6.932-4.966,12.584-13.681,13.759-22.08
	c-8.444-4.578-15.56-8.984-25.125-9.701C164.77,319.779,164.487,320.712,163.53,321.618z"></path>
<path id="color_x5F_1" d="M133.461,284.319c1.134-3.974,5.787-5.674,9.586-5.096c0.665,0.101-0.176,0.627-0.366,0.714
	c-0.604,0.276-1.354,0.481-2.022,0.38c-2.287-0.348-3.758,1.426-4.344,3.477C136.112,284.501,133.305,284.866,133.461,284.319z
	 M162.836,269.124c-0.029,0.615,2.852,0.195,2.898-0.775c0.083-1.753,2.014-4.41,3.891-3.107c0.737,0.512,3.296-0.644,2.715-1.047
	C168.937,261.831,163.026,265.134,162.836,269.124z M161.738,260.87c0.058-1.153,1.771-2.986,2.849-1.74
	c0.904,1.046,3.646-0.147,2.645-1.305c-2.548-2.944-8.25-0.485-8.437,3.238C158.717,262.632,161.669,262.251,161.738,260.87z
	 M136.156,273.482c1.276,0.593,3.344-1.249,1.65-2.035c-2.82-1.311-6.146,0.148-7.269,2.995c-0.629,1.596,2.285,1.662,2.787,0.391
	C133.851,273.5,134.798,272.852,136.156,273.482z M122.594,301.596c-2.489-1.12-5.448-0.033-7.324,1.743
	c-0.513,0.485,0.438,0.662,0.731,0.653c0.692-0.022,1.42-0.259,1.927-0.739c0.779-0.737,1.341-0.843,2.32-0.401
	c0.587,0.264,1.517-0.044,2.038-0.323C122.644,302.337,123.192,301.865,122.594,301.596z M159.539,276.337
	c1.18-0.411,1.93-0.642,2.882,0.062c0.207,1.097-0.461,1.961-0.516,3.059c-0.075,1.497,2.869,1.063,2.934-0.229
	c0.038-0.752,0.42-1.444,0.57-2.179c0.09-0.437,0.031-0.91-0.045-1.343c-0.096-0.552-0.507-0.841-0.927-1.162
	c-1.587-1.214-3.702-0.764-5.422-0.165c-0.546,0.19-1.382,0.64-1.188,1.367C158.008,276.416,158.993,276.526,159.539,276.337z
	 M145.154,293.862c-0.094-0.345,0.509-0.7,1.189-0.902c0.443-0.55,1.893-1.032,2.48-0.709c2.044,1.123,6.533,1.789,7.581-0.986
	c0.37-0.983,3.275-1.344,2.9-0.352c-0.003,0.009-0.008,0.016-0.012,0.023c-0.142,4.094-1.821,7.941-6.185,8.834
	C148.938,300.625,146.19,297.644,145.154,293.862z M148.509,294.452c0.79,1.998,2.219,4.131,4.448,4.207
	c1.868,0.063,2.767-2.418,3.166-4.583C153.845,295.083,150.89,295.109,148.509,294.452z M466.273,303.609
	c-1.392,1.987-5.064,4.332-7.259,2.308c-0.77-0.711-3.496,0.4-2.688,1.146c3.619,3.34,10.266,0.035,12.651-3.368
	C469.757,302.583,466.83,302.815,466.273,303.609z M466.763,289.628c-0.432,0.299-0.42,0.582,0.158,0.594
	c0.656,0.014,1.503-0.171,2.049-0.549c1.972-1.364,4.183-0.406,5.674,1.214c0.48,0.521,3.146-0.524,2.734-0.973
	C474.614,286.913,469.888,287.464,466.763,289.628z M432.766,288.908c-0.316,0.571,2.437,0.343,2.875-0.449
	c1.078-1.947,4.106-0.178,4.899,1.241c0.465,0.831,3.223-0.195,2.898-0.775C441.438,285.344,434.767,285.298,432.766,288.908z
	 M442.631,279.469c-1.806-0.291-3.687,0.007-5.34,0.776c-0.551,0.256-1.099,0.962-0.667,1.558c0.44,0.61,1.379,0.531,1.978,0.253
	c0.956-0.445,2.015-0.557,3.051-0.39c0.694,0.112,1.583-0.236,1.882-0.906C443.838,280.08,443.258,279.569,442.631,279.469z
	 M472.272,280.853c-0.516,0.313-1.125,0.927-0.666,1.564c0.41,0.569,1.419,0.598,1.979,0.256c1.396-0.851,2.582,0.012,3.286,1.32
	c0.652,1.213,3.396,0.088,2.645-1.307C478.104,280.062,474.782,279.321,472.272,280.853z M496.712,299.909
	c-0.318-0.541-0.332-1.064-0.1-1.641c0.068-0.17,0.184-0.335,0.313-0.477c0.604,0.09,1.277-0.081,1.794-0.358
	c0.284-0.152,0.974-0.737,0.308-0.933c-1.463-0.428-3.244,0.005-4.387,1.011c-0.886,0.779-1.477,2.063-0.826,3.175
	C494.308,301.529,497.054,300.493,496.712,299.909z M454.403,299.952c-0.813,0.615-1.803,0.955-2.813,1.047
	c-1.736,0.157-2.582-1.261-2.916-2.764c-0.296-1.327-3.198-0.569-2.898,0.777c1.129,5.064,7.068,4.872,10.541,2.236
	C457.888,300.058,455.532,299.095,454.403,299.952z M491.272,312.412c-0.828,2.085-1.192,4.298-0.506,6.884
	c0.025,0.094,0.01,0.186-0.023,0.275c0.194,0.399,0.369,0.814,0.528,1.24c0.455-0.156,0.901-0.262,1.13-0.225
	c5.081,0.834,10.047,2.369,14.896,4.079c4.091,1.442,9.113,2.684,12.294,5.825c7.469,7.378,8.247,18.613,6.963,28.479
	c-0.053,0.404-0.745,0.662-1.44,0.791c-0.381,0.335-0.905,0.599-1.385,0.596c-0.055,0-0.108-0.001-0.162-0.002
	c0.15,8.25,1.752,20.928-3.911,27.437c-1.028,1.182-2.165,2.03-3.374,2.616c-0.029,4.604-0.347,9.213-0.74,13.799
	c-0.041,0.48-0.978,0.712-1.338,0.805c-0.098,0.025-0.197,0.045-0.295,0.069c0.038,9.103,0.524,18.21,1.069,27.294
	c0.021,0.361-0.599,0.601-1.118,0.741c-0.415,6.26-3.169,12.079-3.723,18.307c0.206,0.199,0.411,0.405,0.613,0.616
	c7.601,0.57,13.452,5.289,13.791,13.421c0.92,0.061,1.668,0.656,0.608,1.46c-3.466,2.63-9.674,2.697-13.769,2.93
	c-6.5,0.367-13.332,0.433-19.592-1.588c-0.02-0.006-0.032-0.015-0.051-0.021c-0.242-0.06-0.426-0.181-0.51-0.367
	c-0.01-0.021-0.016-0.043-0.021-0.066c-0.011-0.034-0.023-0.068-0.024-0.104c-0.001-0.005,0.001-0.01,0-0.015
	c-0.004-0.056-0.007-0.113,0.005-0.178c0.766-4.443,1.451-10.123,3.736-14.221c-0.002-0.02-0.009-0.037-0.01-0.059
	c-0.226-6.83-3.293-13.245-3.596-20.075c-0.436-0.115-0.868-0.237-1.299-0.37c-0.698-0.215-5.117-1.471-5.273-2.467
	c-0.662-4.228-0.707-8.348-0.148-12.563c-1.053,0.396-2.131,0.737-3.229,1.027c-0.663,3.854-1.326,7.709-1.99,11.563
	c-0.1,0.58-1.217,0.849-1.665,0.914c-0.394,0.058-0.797,0.122-1.2,0.186c0.005,0.039,0.014,0.075,0.013,0.118
	c-0.238,6.83-3.687,13.131-3.995,19.949c0.187,0.059,0.344,0.153,0.443,0.302c2.763,4.138,3.483,10.345,4.312,15.157
	c0.094,0.545-0.44,0.988-1.075,1.209c-0.049,0.02-0.082,0.047-0.137,0.064c-6.064,1.945-12.822,1.975-19.115,1.396
	c-3.777-0.347-9.347-0.45-12.586-2.816c-0.041-0.03-0.086-0.056-0.127-0.087c-0.002-0.001-0.002-0.002-0.004-0.004
	c-0.053-0.038-0.1-0.081-0.14-0.131c-0.043-0.049-0.078-0.099-0.106-0.148c-0.045-0.096-0.074-0.204-0.076-0.33
	c0-0.014-0.004-0.023-0.004-0.037c0.177-8.477,6.557-13.396,14.326-14.035c0.188-0.188,0.381-0.377,0.578-0.562
	c-0.135-0.124-0.222-0.29-0.225-0.513c-0.085-6.689-1.074-13.332-1.169-20.025c-2.235-0.553-4.454-1.178-6.655-1.799
	c-0.138-0.043-0.232-0.131-0.283-0.262c0-5.016,0-10.031,0-15.047c0-0.314,0.274-0.579,0.653-0.773
	c-1.603-1.186-3.086-2.522-4.392-4.033c-3.902-4.515-5.826-9.64-6.094-15.013c-0.097-0.055-0.09-0.136-0.01-0.23
	c-0.029-0.726-0.035-1.454-0.005-2.188c-0.164,0.052-0.329,0.082-0.485,0.082c-18.729,0-37.457,0-56.186,0
	c2.546,7.245,5.556,14.644,5.711,22.204c0.002,0.084-0.004,0.165-0.003,0.249c2.278-2.312,5.296-3.534,8.707-1.709
	c4.876,2.608,7.786,8.682,9.374,13.725c1.504,4.775,3.048,11.931-0.412,16.286c-3.989,5.021-11.003,2.706-15.78,0.305
	c-0.002-0.001-0.003-0.002-0.005-0.003c-4.763,4.458-10.912,7.302-17.745,10.384c-0.069,0.031-0.141,0.058-0.212,0.081
	c0.002,0.749,0.005,1.497,0.008,2.245c0,0.032-0.01,0.063-0.016,0.094c-0.011,0.068-0.032,0.136-0.065,0.199
	c-0.116,0.225-0.354,0.414-0.649,0.561c-4.903,3.821-9.807,7.642-14.711,11.462c-0.02,0.016-0.049,0.03-0.072,0.045
	c-0.572,0.397-1.633,0.594-2.175,0.475c-16.16,0-32.32,0-48.48,0c-0.86,0.424-2.228,0.407-2.229-0.503
	c-0.02-11.204-0.039-22.408-0.059-33.612c-0.002-0.6,0.926-0.958,1.575-1.044c-0.537-0.591-1.051-1.162-1.531-1.693
	c-8.73-9.641-10.526-27.553-6.48-39.953c-0.196,0.063-0.383,0.104-0.533,0.104c-38.845,0.031-77.689-0.021-116.533-0.149
	c0.529,9.814,1.613,19.638,2.608,29.378c0.054,0.525-0.372,0.941-0.841,1.12c-1.423,0.544-2.862,0.978-4.313,1.333
	c0.019,0.067,0.03,0.141,0.03,0.221c-0.003,9.33-0.431,18.142-3.099,27.117c7.433,0.6,12.031,6.935,14.341,13.576
	c0.082,0.236-0.244,0.499-0.704,0.705c-3.422,2.323-8.926,2.491-12.812,2.77c-6.827,0.487-14.098,0.64-20.684-1.487
	c-0.129-0.042-0.186-0.1-0.194-0.166c-0.041-0.048-0.064-0.104-0.053-0.174c0.81-4.707,1.498-10.899,4.199-14.945
	c0.104-0.155,0.312-0.281,0.566-0.382c-0.002-0.005-0.006-0.008-0.008-0.012c-4.121-8.647-0.797-18.779-4.561-27.407
	c-1.527-0.294-3.047-0.62-4.554-0.975c-0.216-0.051-0.561-0.241-0.589-0.499c-0.229-2.111-0.458-4.229-0.722-6.341
	c-0.223,1.138-0.439,2.271-0.657,3.387c-0.555,2.848-0.448,3.776-3.33,4.714c-1.691,0.551-3.42,0.917-5.168,1.149
	c0.45,8.537-0.27,17.899-4.344,25.54c0.104,0.041,0.191,0.1,0.249,0.186c2.701,4.047,3.389,10.238,4.199,14.945
	c0.034,0.202-0.131,0.395-0.396,0.56c-0.181,0.188-0.466,0.367-0.873,0.499c-6.221,2.008-13.185,2.097-19.647,1.635
	c-3.884-0.277-9.526-0.181-13.004-2.459c-0.428-0.071-0.701-0.296-0.556-0.715c2.351-6.762,6.998-13.177,14.303-14.313
	c-0.014-9.142-0.001-18.283,0-27.424c-1.615-0.319-3.214-0.647-4.781-0.959c-0.206-0.041-0.546-0.207-0.577-0.455
	c-0.842-6.78-1.264-13.793-0.45-20.59c0,0,0,0,0-0.001c-0.417,0.089-0.782,0.472-1.084,1.321c-0.807,2.268-0.435,7.064-3.286,7.973
	c-2.066,0.658-3.317-0.616-4.041-2.434c-0.148,0.226-0.305,0.444-0.48,0.647c-1.101,1.269-3.379,2.448-5.118,1.935
	c-0.819-0.242-1.277-0.867-1.5-1.703c-1.12,0.652-2.709,1.039-3.85,0.707c-0.837-0.244-1.232-0.981-1.362-1.933
	c-0.761,0.498-1.631,0.72-2.638,0.478c-4.773-1.148-1.903-7.688-0.511-10.326c3.355-6.36,7.248-11.677,8.078-18.98
	c1.023-9.014,2.38-18.014,5.711-26.5c0.084-0.214,0.362-0.39,0.711-0.522c-1.727-3.45,0.48-8.334,1.779-11.67
	c4.346-11.155,12.423-22.374,25.37-22.661c0.003-0.01,0.005-0.018,0.008-0.026c0.078-0.229,0.364-0.422,0.724-0.565
	c-1.369-5.293-6.462-6.207-10.468-9.193c-4.761,3.39-12.554,2.41-12.877-4.832c-0.096-2.147,0.599-3.839,1.742-5.105
	c-5.115-4.252-11.687-5.266-16.005-10.844c-3.462-4.473-6.153-9.896-7.127-15.506c-1.663-9.597,0.51-19.443,8.719-25.073
	c-1.496,0.112-2.955,0.383-4.374,1.046c-1.371,0.641-3.017-0.557-1.201-1.404c2.407-1.125,4.91-1.438,7.487-1.522
	c0.002-0.005,0.002-0.009,0.003-0.014c-1.661-1.866-2.607-4.163-2.444-6.749c0.059-0.933,2.932-1.311,2.898-0.777
	c-0.1,1.568,0.21,3.021,0.841,4.338c4.867-9.341,17.128-14.089,26.788-16.104c6.009-1.253,12.262-1.974,18.262-0.23
	c0-23.867,0-47.734,0-71.603c0-0.453,0.652-0.829,1.337-0.972c-0.15,0-0.3,0-0.45,0c-1.959,0,0.034-1.654,1.125-1.654
	c115.338,0,230.676,0,346.014,0c0.98,0,0.972,0.414,0.581,0.828c0.12,0.106,0.196,0.247,0.196,0.438c0,23.703,0,47.405,0,71.109
	c2.304-0.46,4.745-0.031,7.091,1.671c3.564,2.588,7.19,7.065,7.529,11.639c4.661-0.64,9.632,0.104,12.385,4.337
	c2.05,3.152,1.661,7.006,0.421,10.438c9.16,0.441,8.882,11.967,4.331,18.748c0.038,0.009,0.078,0.014,0.114,0.027
	c9.178,3.36,4.041,13.942-0.709,19.917c7.574,8.493-6.427,14.8-14.955,15.879C506.804,311.737,498.406,314.591,491.272,312.412z
	 M472.989,358.313c0.241,0.142,0.328,0.381,0.11,0.739c-1.954,3.218-3.353,6.751-4.35,10.435c4.892-0.016,10.669-2.982,15.6-1.834
	c1.944-0.342,4.322,0.452,6.376,1.42c-0.803-1.707-1.346-3.768-0.615-5.213c-0.187,0.005-0.347-0.02-0.455-0.094
	C484.71,360.382,478.884,358.547,472.989,358.313z M483.802,381.226c0-0.004,0.002-0.008,0.002-0.013
	c-0.021-0.021-0.042-0.043-0.064-0.063c-0.709,3.376-1.111,7.085-0.989,10.744c5.784,2.313,11.349,5.189,17.619,6.561
	c0.767-2.699,1.131-5.609,0.995-8.703c-0.013-0.295,0.15-0.553,0.401-0.763c-1.202-0.544-2.36-1.133-3.45-1.723
	C493.188,390.187,483.366,388.294,483.802,381.226z M499.947,399.805c-0.301,0.081-0.57,0.122-0.739,0.092
	c-5.853-1.073-11.065-3.569-16.32-5.807c0.654,6.904,3.389,13.335,9.738,16.638C495.915,407.81,498.465,404.108,499.947,399.805z
	 M513.381,391.312c-2.922,0.47-6.081-0.18-9.103-1.291c0.051,5.521-1.402,10.552-3.964,14.842c4.052,0.712,8.332,0.501,12.37-0.383
	C513.055,400.102,513.349,395.704,513.381,391.312z M481.952,375.218c-0.043-0.046-0.092-0.094-0.133-0.14
	c-0.626-0.698-1.53-1.756-1.209-2.776c0.189-0.603,0.663-1.002,1.227-1.27c-0.366-0.598-0.423-1.226,0.004-1.86
	c-4.464-0.935-9.09,1.573-13.532,2.056c-1.325,5.668-1.754,11.628-1.749,17.338c0.958-0.031,1.917-0.032,2.873,0.019
	c3.691,0.196,7.098,1.052,10.384,2.2c0.021-4.382,0.729-8.756,1.799-12.525c0.024-0.086,0.069-0.165,0.124-0.241
	c-0.217-0.787-0.264-1.618-0.064-2.474C481.702,375.426,481.806,375.317,481.952,375.218z M308.125,466.971
	c15.821,0,31.642,0,47.463,0c0-7.41,0-14.82,0-22.231c-0.052,0.041-0.103,0.089-0.154,0.129c-1.503,1.154-5.255,3.185-6.372,0.629
	c-0.703,0.142-1.481,0.146-1.971-0.305c-0.312-0.286-0.543-0.636-0.746-1.005c-0.17-0.308-0.278-0.464-0.325-0.544
	c-0.028-0.002-0.056,0.004-0.084,0.001c-0.065-0.007-0.126-0.019-0.18-0.035c-0.573,0.241-1.255,0.341-1.638,0.123
	c-2.242-1.276-1.676-3.657-0.676-5.628c0.646-1.275,1.422-2.467,2.154-3.692c0.252-0.422,0.526-0.847,0.722-1.3
	c0.021-0.049,0.042-0.084,0.062-0.121c-4.418,0.084-8.836,0.167-13.255,0.25c0.024,0.024,0.051,0.047,0.075,0.071
	c0.015,0.015,0.02,0.029,0.031,0.044c0.014,0.016,0.025,0.033,0.035,0.049c0.016,0.026,0.031,0.051,0.036,0.082
	c0.009,0.063,0.007,0.117,0.013,0.178c0.189,1.88-0.976,2.881-2.482,3.176c-0.163,1.246-1.038,1.986-2.164,2.292
	c-0.407,1.797-2.416,2.408-4.328,2.12c-0.195,1.951-4.058,1.908-5.596,1.431c-3.506-1.089-7.035-4.282-10.029-7.415
	c-0.215-0.019-0.431-0.041-0.646-0.068C308.088,445.79,308.106,456.381,308.125,466.971z M327.081,428.466
	c0.009-0.004,0.014-0.005,0.022-0.009c-0.019,0.006-0.054,0.016-0.125,0.034C327.028,428.479,327.06,428.471,327.081,428.466z
	 M327.22,429.47c1.355,0.428,2.591,1.094,3.725,1.918c0.188-0.075,0.396-0.125,0.629-0.129c1.938-0.036,3.875-0.072,5.813-0.109
	c-0.043-0.4,0.11-0.89,0.504-1.479c0.036-0.167,0.196-0.359,0.55-0.572c2.951-1.781,6.155-3.052,9.123-4.78
	c1.265-0.736,2.262-1.57,3.107-2.487c-9.911,0-19.822,0-29.732,0c2.043,1.84,4.949,3.051,9.006,3.377
	c0.65,0.022,1.465,0.119,1.801,0.663c0.288,0.468-0.146,1.055-0.461,1.385C330.253,428.337,328.72,429.112,327.22,429.47z
	 M283.936,302.028c0.622-0.279,1.438-0.475,1.778-0.337c0.38,0.153,0.763,0.268,1.146,0.392c0.077-0.028,0.151-0.047,0.229-0.08
	c0.918-0.381,1.856,0.082,2.078,0.677c8.461,1.522,17.219-3.227,24.249-7.627c0.224-0.14,0.8-0.261,1.35-0.312
	c0.597-0.317,1.393-0.421,1.815-0.058c8.446,7.257,22,11.2,33.127,10.126c1.94-0.188,1.295,1.724-0.192,1.953
	c-3.209,5.811-2.079,13.284,2.905,17.765c2.035-1.775,4.879-3.048,7.502-3.077c2.221-4.107,6.01-7.188,7.693-11.637
	c2.224-5.875,2.701-12.439,1.352-18.602c-0.26-1.188-0.584-2.369-0.966-3.535c-0.554-0.012-0.849-0.143-0.163-0.474
	c-2.84-8.271-8.792-15.507-18.045-16.398c-0.072,0.035-0.145,0.071-0.217,0.106c-0.781,0.387-1.646,0.159-1.908-0.271
	c-0.65,0.07-1.201-0.018-1.086-0.317c0.084-0.219,0.149-0.438,0.219-0.657c-9.513-9.123-29.876-5.966-40.244,0.119
	c-7.386,4.336-10.277,11.635-16.264,17.253c-3.308,3.104-6.65,4.08-10.275,2.479C279.836,293.646,280.763,300.435,283.936,302.028z
	 M394.331,317.167c2.456-11.455-9.162-34.591-23.328-30.209c0.221,0.729,0.423,1.465,0.586,2.209
	c1.3,5.938,1.688,12.833-0.505,18.628c-2.024,5.351-6.401,8.983-8.716,14.05c1.428,0.515,2.656,1.563,3.454,3.316
	c3.138,6.892-3.035,11.89-9.161,10.82c-0.024,0.047-0.05,0.095-0.075,0.143c3.635,10.877,14.426,14.294,25.077,15.891
	C375.368,338.651,391.715,329.365,394.331,317.167z M288.394,304.183c0.256,13.445-0.719,34.352,13.582,40.971
	c9.851,4.56,24.172-0.569,31.684,8.753c0.079,0.048,0.148,0.105,0.192,0.182c0.926,1.599,2.884,2.613,4.817,2.948
	c0.454-0.109,0.945-0.086,1.309,0.12c0.26,0.002,0.518,0,0.764-0.025c4.702-0.489,6.391-4.969,6.902-9.109
	c-0.035-0.411,0.268-0.8,0.693-1.061c0.307-3.913,3.275-6.615,5.28-10.279c-0.192-0.599-0.372-1.212-0.521-1.854
	c-0.123-0.533,1.882-1.126,2.627-0.965c0.285-0.036,0.542-0.024,0.717,0.069c2.748,1.477,6.141,1.108,7.09-2.29
	c0.521-1.867,0.354-3.983-0.605-5.703c-0.746-1.339-1.713-2.193-2.765-2.618c-0.525,0.039-0.954-0.037-0.977-0.257
	c-2.069-0.322-4.294,0.833-5.752,3.117c-0.482,0.757-3.175,0.937-2.871,0.461c0.059-0.092,0.124-0.183,0.188-0.273
	c-0.041-0.018-0.081-0.034-0.113-0.059c-6.027-4.531-7.56-13.035-3.79-19.403c-5.618,0.032-11.074-1.479-16.606-2.474
	c-5.922-1.063-11.414-4.29-15.913-8.155c-0.052-0.044-0.088-0.09-0.126-0.135C306.685,300.713,297.31,305.291,288.394,304.183z
	 M328.938,352.882c-2.421,2.926-4.144,7.475-0.396,10.147c3.699,2.638,6.873-0.192,8.067-3.88c0.069-0.214,0.214-0.389,0.397-0.528
	c-2.385-0.374-4.69-1.396-5.845-3.391c-0.018-0.03-0.023-0.062-0.036-0.092C330.449,354.263,329.715,353.522,328.938,352.882z
	 M341.368,358.631c-0.172,0.027-0.35,0.049-0.529,0.069c0.755,1.828,2.008,4.24,3.95,4.371c1.519,0.103,2.878-1.732,3.524-2.884
	c1.402-2.496,2.322-6.031,1.383-8.884C348.373,355.021,345.693,357.944,341.368,358.631z M303.61,387.517
	c2.12,0.161,4.35-0.034,6.5-0.464c1.244-0.248,2.451-0.571,3.595-0.943c-0.541-3.394-0.928-6.806-0.982-10.249
	c-0.017-1.078,2.885-1.623,2.898-0.775c0.079,5.01,0.85,9.933,1.809,14.829c0.246,0.017,0.408,0.072,0.403,0.173
	c-0.021,0.463-0.051,0.938-0.086,1.421c0.764,3.755,1.606,7.499,2.306,11.258c0.432,2.319,1.136,5.288,1.355,8.218
	c8.405,7.08,22.542,5.682,32.335,2.745c0.486-0.146,0.853-0.126,1.108-0.024c2.626-8.293,1.468-17.212,3.897-25.562
	c-4.109-3.192-3.269-9.137-3.167-14.655c0.02-1.071,2.935-1.636,2.91-0.316c-0.085,4.619-1.218,11.105,2.885,13.871
	c0.095,0.063,0.178,0.136,0.278,0.195c0.66,0.394,1.441,0.701,2.373,0.896c3.57,0.747,8.338,1.004,12.129-0.248
	c0.118-0.055,0.246-0.1,0.375-0.138c0.742-0.271,1.447-0.595,2.089-0.996c0.152-0.095,0.339-0.159,0.538-0.201
	c-0.038-0.163,0-0.317,0.089-0.462c2.226-9.517,0.952-19.732-6.515-26.711c-5.574-5.211-12.679-8.183-20.221-8.854
	c1.295,3.952-0.033,8.894-2.722,11.943c-1.626,1.844-3.946,3.269-6.492,2.709c-2.151-0.473-3.57-2.173-4.585-4.071
	c-2.187,4.238-7.086,6.805-11.672,4.098c-4.809-2.838-4.098-8.064-1.456-11.996c-9.785,2.539-20.034,8.584-24.7,17.614
	c-1.685,3.262-5.928,14.966,0.454,16.386C302.072,387.368,302.837,387.458,303.61,387.517z M317.935,417.468
	c0.627-1.572,0.809-3.431,0.735-5.385c-0.024-0.021-0.053-0.038-0.077-0.06c-0.222-0.19-0.165-0.415,0.041-0.626
	c-0.228-3.443-1.166-7.105-1.858-10.005C316.246,407.149,316.082,412.993,317.935,417.468z M319.107,419.687
	c0.151,0.227,0.306,0.451,0.472,0.668c0.133-0.034,0.26-0.056,0.373-0.056c10.65,0,21.301,0,31.949,0
	c1.023-1.515,1.768-3.252,2.486-5.224c-0.085,0.036-0.154,0.078-0.254,0.108c-9.752,2.923-23.388,4.397-32.712-1.167
	c-0.156,2.031-0.697,3.92-1.928,5.4C319.411,419.518,319.272,419.607,319.107,419.687z M325.735,440.252
	C325.462,440.393,325.607,440.501,325.735,440.252L325.735,440.252z M346.63,443.609c0.268-0.027,0.622-0.121,1.072-0.356
	c-0.019,0.008-0.038,0.015-0.058,0.022C347.325,443.435,346.983,443.552,346.63,443.609z M358.486,447.657
	c5.624-10.216,5.475-21.229,8.286-32.333c2.193-8.663,7.288-16.544,8.498-25.445c-4.283,1.065-9.189,0.994-12.982-0.044
	c-0.123-0.033-0.225-0.08-0.344-0.116c-0.252-0.076-0.494-0.157-0.728-0.244c-0.015,0.061-0.027,0.121-0.042,0.183
	c-2.221,9.569-0.639,19.929-5.334,28.92c-3.27,6.26-9.553,7.951-15.276,11.332c-0.448,0.855,0.46,1.102,1.843,1.146
	c1.053-0.02,2.104-0.04,3.156-0.06c0.218-0.004,0.436-0.008,0.654-0.013c0.528-0.01,1.057-0.02,1.586-0.029
	c0.517-0.01,0.85,0.123,1.037,0.322c0.261,0.115,0.438,0.269,0.496,0.48c0.744,2.75-6.781,8.291-2.938,10.479
	c0.007,0.004,0.01,0.008,0.016,0.012c2.615-2.425,4.643-5.352,6.617-8.313c0.422-0.632,3.268-1.048,2.65-0.121
	c-2.131,3.193-4.328,6.235-7.177,8.808c0.296,0.227,0.574,0.546,0.849,0.983c0.033,0.053,0.073,0.108,0.109,0.165
	c0.697-0.846,1.318-1.746,2.01-2.597c1.44-1.774,2.947-3.496,4.127-5.462c0.463-0.77,3.179-0.969,2.873-0.459
	c-1.379,2.296-3.172,4.246-4.796,6.362c-0.67,0.873-1.302,1.843-2.111,2.598c0.142,0.063,0.251,0.156,0.297,0.292
	c0.045,0.133,0.14,0.46,0.292,0.625c0.092-0.092,0.502-0.232,0.692-0.379c0.93-0.715,1.772-1.527,2.522-2.431
	c1.493-1.799,2.866-3.8,3.439-6.096c0.223-0.893,3.118-1.347,2.885-0.412c-0.57,2.281-1.916,4.564-3.566,6.476
	c0.216,0.043,0.358,0.131,0.358,0.276c0,0.011,0,0.021,0,0.032C358.486,444.284,358.486,445.971,358.486,447.657z M367.708,426.208
	c0.163-0.214,0.334-0.422,0.495-0.637c0.619-0.828,1.237-1.661,1.805-2.526c0.124-0.188,0.237-0.386,0.351-0.581
	c-0.672,0-1.344,0-2.016,0C368.131,423.716,367.921,424.964,367.708,426.208z M370.835,411.592c4.673-2.45,9.322-4.903,12.793-9.023
	c0.104-0.123,0.337-0.238,0.623-0.334c-1.436-4.695-3.163-9.317-4.59-14.009c-0.452,0.243-0.925,0.466-1.414,0.671
	C377.346,396.847,373.386,404.028,370.835,411.592z M383.122,377.341c16.628-0.001,33.255-0.004,49.883-0.01
	c-0.227-0.673-0.397-1.402-0.461-2.237c-0.555-7.337,3.002-14.794,7.01-20.799c-0.293-0.04-0.586-0.083-0.876-0.134
	c-0.794-0.139-0.515-0.528,0.054-0.862c-0.01-0.133,0.006-0.279,0.066-0.447c2.235-6.133,3.703-12.669,7.65-18.021
	c4.679-6.344,11.285-9.482,18.973-10.234c-8.522-5.156-20.757-2.99-28.902-9.528c-5.615-4.507-8.488-10.458-9.992-16.952
	c-9.954,0.089-22.049-8.764-15.617-18.825c-6.567-1.964-4.758-14.67,1.817-15.204c-2.808-4.453-4.135-10.09-0.052-14.36
	c3.441-3.6,8.089-5.343,12.95-5.769c-0.445-5.408,0.896-11.544,5.915-14.466c4.086-2.378,8.415-2.331,12.475-0.722
	c2.752-9.262,16.287-9.934,23.609-5.41c0.006,0.004,0.009,0.008,0.015,0.012c0.104-0.074,0.212-0.15,0.329-0.229
	c2.59-3.444,6.926-4.746,11.098-4.253c0-17.966,0-35.932,0-53.897c-105.782,0-211.566,0-317.35,0c0,22.26,0,44.52,0,66.779
	c3.558,0.959,6.704,0.669,8.408-2.618c0.482-0.931,1.985-1.318,2.716-0.455c4.048,4.778,7.009,16.17,0.378,19.069
	c6.396,13.729,15.53,30.796,5.271,44.881c-5.631,7.73-16.641,11.313-20.669,20.03c1.84,0.927,5,2.77,6.277,4.877
	c0.088-0.018,0.168-0.03,0.227-0.029c10.692,0.165,18.301,4.673,27.326,9.592c0.626,0.003,1.15,0.277,1.069,0.912
	c-0.228,1.784-0.647,3.583-1.231,5.361c5.909,2.561,11.658,5.766,17.879,7.168c3.355-9.621,6.713-19.243,10.069-28.865
	c0.035-0.633,1.497-1.475,2.323-1.268c15.178,3.811,30.356,7.62,45.535,11.43c1.02,0.256,0.626,0.939-0.096,1.398
	c-6.133,17.973-12.264,35.945-18.395,53.918c0.219-0.085,0.438-0.139,0.635-0.139c15.439,0.008,30.879,0.016,46.318,0.021
	c0.228-0.981,0.485-1.887,0.721-2.651c3.774-12.261,17.798-20.458,29.834-23.23c-8.599-4.313-20.873-0.023-29.103-6.233
	c-12.282-9.268-11.396-26.535-11.721-40.406c-7.217,0.339-9.664-10.928-8.139-17.128c0.257-1.042,1.677-1.611,2.58-0.963
	c6.336,4.55,10.355-3.136,13.63-7.604c1.949-2.66,4.036-5.34,6.619-7.427c4.73-3.823,10.256-6.132,16.151-7.516
	c9.751-2.288,22.387-3.602,30.953,2.618c-0.028-1.43-0.394-2.838-1.162-4.189c-0.292-0.515,2.449-1.566,2.898-0.777
	c1.291,2.271,1.468,4.741,0.802,7.167c0.025,0.024,0.051,0.048,0.074,0.073c2.441-1.109,4.886-1.924,7.656-1.981
	c0.539-0.012,1.166,0.425,0.826,1.003c-0.379,0.644-1.223,0.817-1.902,0.831c-1.412,0.03-2.733,0.412-4.014,0.931
	c8.936,1.23,15.496,8.233,18.289,16.61c13.174-3.423,24.299,9.617,26.453,22.216c1.398,8.172-2.223,14.053-6.752,20.586
	c-4.998,7.211-10.145,15.027-5.167,23.641c0.329,0.569-2.343,0.971-2.644,0.934c-11.031-1.335-23.141-4.047-28.021-14.329
	c-1.921,2.767-3.8,5.354-3.297,8.966c0.262,0.363,0.498,0.74,0.696,1.137c0.362-0.138,0.706-0.229,0.899-0.22
	c8.457,0.423,17.474,3.622,23.298,10.005C381.051,364.415,383.124,370.703,383.122,377.341z M264.259,323.337
	c-14.16-3.555-28.32-7.109-42.481-10.664c-3.296,9.448-6.591,18.896-9.887,28.344c1.495,0.205,3.019,0.303,4.583,0.239
	c0.531-0.021,0.758,0.086,0.795,0.251c0.549-0.06,1-0.016,0.994,0.156c-0.155,4.133-4.623,5.564-8.221,6.285
	c-4.227,7.383-5.865,15.81-9.521,23.369c7.604,1.872,15.207,3.744,22.811,5.615c0.025,0,0.05,0,0.075,0
	c0.393,0,0.633,0.081,0.764,0.206c6.683,1.646,13.365,3.29,20.049,4.936C250.9,362.495,257.579,342.915,264.259,323.337z
	 M125.392,353.438c0.279-0.098,0.575-0.126,0.853-0.107c0.093-4.924,0.717-9.784,1.411-14.656c0.133-0.929,3.044-1.466,2.891-0.389
	c-0.701,4.918-1.371,9.833-1.424,14.809c-0.007,0.629-0.993,1.065-1.813,1.159c-0.116,0.158-0.349,0.317-0.751,0.458
	c-0.68,0.238-1.406,0.466-2.16,0.676c-1.833,8.963-3.487,18.471-3.326,27.813c0.071,0.011,0.142,0.024,0.208,0.047
	c17.832,6.126,39.907,6.646,57.069-2.388c-1.383-15.018-4.222-31.198-11.254-44.605c-0.697-1.329,2.071-2.378,2.656-1.264
	c2.586,4.931,4.615,10.211,6.229,15.661c6.932-4.966,12.584-13.681,13.759-22.08c-8.444-4.578-15.56-8.984-25.125-9.701
	c0.156,0.909-0.126,1.842-1.083,2.748c-0.113,0.107-0.232,0.214-0.364,0.32c-0.622,0.5-1.312,0.887-2.042,1.19
	c-2.723,1.136-6.058,1.015-9.032,0.386c-5.215,7.113-21.175,5.471-19.502-4.508c-10.929-0.071-18.096,10.483-21.675,19.672
	c-1.233,3.166-2.381,6.493-2.792,9.884C107.188,356.264,121.851,354.681,125.392,353.438z M153.425,321.47
	c2.625,0.584,5.752,0.783,7.629-0.729c2.282-1.836-1.827-4.445-4.113-5.681c-0.124,0.44-0.237,0.889-0.327,1.354
	c-0.001,0.018,0.005,0.033,0.001,0.052C156.126,319.011,154.976,320.58,153.425,321.47z M135.467,318.557
	c-0.499,3.222,0.739,6.243,4.276,7.385c3.554,1.146,8.061,0.732,10.044-2.841c0.029-0.053,0.069-0.102,0.118-0.148
	c-0.273-0.084-0.541-0.172-0.801-0.261c-0.219-0.075-0.375-0.169-0.48-0.276C144.29,322.219,139.138,320.08,135.467,318.557z
	 M208.757,342.324c-6.297-1.204-12.091-4.215-18.028-6.876c-1.779,4.415-4.532,8.617-7.825,12.084
	c6.883-0.634,15.552,3.099,21.473,6.513c0.875-2.164,1.85-4.288,3.028-6.327c0.321-0.557,1.649-0.86,2.361-0.678
	c2.532-0.48,5.218-1.361,5.559-4.192c-1.82,0.073-3.588-0.042-5.315-0.302C209.323,342.646,208.698,342.59,208.757,342.324z
	 M180.937,376.96c0.09-0.018,0.179-0.027,0.266-0.027c10.863,0,21.727,0,32.59,0c-5.291-1.303-10.582-2.605-15.873-3.907
	c-0.738-0.182-0.771-0.606-0.477-1.015c-0.007,0.002-0.013,0.003-0.02,0.005c2.549-5.021,4.12-10.472,6.097-15.765
	c-0.075-0.018-0.145-0.042-0.202-0.077c-4.06-2.468-8.507-4.333-13.101-5.555c-2.66-0.708-5.966-1.844-8.749-1.39
	c-0.113,0.019-0.214,0.028-0.308,0.035c-1.165,1.072-2.385,2.039-3.638,2.903c-0.252,0.174-0.501,0.356-0.756,0.521
	c-0.057,0.037-0.119,0.066-0.182,0.095c0.052,0.188,0.104,0.376,0.154,0.563C178.819,361.095,180.104,369.124,180.937,376.96z
	 M136.254,260.776c0.871-1.156,1.674-2.342,2.403-3.551C137.964,258.304,137.154,259.515,136.254,260.776z M492.845,304.567
	c0.313-0.648,1.948-0.97,2.621-0.781c0.063,0.014,0.122,0.033,0.174,0.061c0.002,0,0.005,0.001,0.007,0.002
	c2.747,1.477,6.142,1.109,7.09-2.289c0.521-1.867,0.353-3.983-0.606-5.704c-2.389-4.286-7.033-3.61-9.49,0.242
	c-0.482,0.757-3.175,0.937-2.871,0.461c0.059-0.092,0.123-0.183,0.187-0.272c-0.041-0.017-0.081-0.034-0.113-0.059
	c-5.906-4.439-7.483-12.689-4-19.01c-0.282-0.02-0.524-0.1-0.669-0.269c-1.518-1.77-3.526-1.414-4.193-3.444
	c-0.004-0.004-0.009-0.008-0.014-0.012c-5.162,1.852-12.185,1.756-13.535-3.727c-1.881,2.247-4.351,3.785-7.529,3.956
	c-3.059,0.165-5.118-1.816-6.411-4.278c-3.015,3.222-8.96,0.607-13.47-1.621c-0.768,6.098-7.097,6.606-12.42,6.176
	c0.285,13.738-0.622,32.619,12.677,40.794c9.918,6.097,24.683,3.015,32.358,12.753c0.148,0.064,0.244,0.165,0.246,0.309
	c0.044,3.057,0.547,5.623,1.936,8.237c6.307-3.501,10.49-9.808,12.592-16.636c0.006-0.021,0.014-0.04,0.02-0.06
	c0.003-0.009,0.006-0.018,0.009-0.026c0.001-0.002,0.001-0.003,0.002-0.004c0.005-0.014,0.015-0.027,0.021-0.041
	c0.039-0.096,0.102-0.188,0.191-0.271C486.671,313.388,490.449,309.509,492.845,304.567z M488.811,323.009
	c-2.653,5.941-6.941,10.938-12.717,14.078c5.63,1.523,11.101,0.527,12.716-5.946C489.472,328.49,489.498,325.655,488.811,323.009z
	 M464.356,333.354c1.007,3.232,4.488,3.618,7.455,3.323c-1.311-2.547-1.783-5.06-1.828-8.039c-0.65-0.836-1.352-1.572-2.092-2.229
	C465.681,327.897,463.479,330.536,464.356,333.354z M422.207,246.64c-1.968,0.464-3.874,1.228-5.446,2.401
	C418.517,248.118,420.468,247.299,422.207,246.64z M447.916,380.412c0.063-0.012,0.113-0.001,0.174-0.008
	c2.066-0.646,4.062-1.39,5.96-2.523c0.831-0.497,4.464-2.542,3.166-3.737c-1.633,0.777-3.325,1.415-4.96,2.201
	c-1.495,0.719-3.085-0.917-1.301-1.775c1.578-0.759,3.237-1.344,4.814-2.112c0.85-0.414,1.75-0.831,2.501-1.419
	c-0.441-0.084-0.699-0.26-0.824-0.475c-1.568,0.436-3.174,0.789-4.65,1.5c-0.582,0.28-1.388,0.543-2.035,0.336
	c-0.638-0.203,0.021-0.738,0.32-0.883c2.209-1.063,4.484-1.526,6.791-2.232c0.286-0.241,0.66-0.411,1.057-0.43
	c0.314-0.186,0.603-0.426,0.69-0.697c0.23-0.707-1.035-0.682-1.435-0.708c-0.043-0.003-0.063-0.021-0.101-0.026
	c-1.5,0.169-3.007,0.318-4.389,0.861c-1.354,0.533-3.057-0.584-1.18-1.322c1.831-0.722,3.617-1.026,5.571-1.246
	c0.342-0.039,3.619-0.475,3.373-0.938c-0.552-1.042-2.414-1.203-3.369-1.2c-3.098,0.01-5.789,1.015-8.404,2.575
	c-1.297,0.774-2.56,1.412-4.035,1.763c-1.755,0.417-2.198-1.165-0.426-1.586c2.047-0.486,3.496-2.017,5.429-2.721
	c0.915-0.333,1.827-0.681,2.755-0.976c-0.201-0.068-0.313-0.189-0.257-0.378c0.572-1.927,0.827-3.974,0.946-6.05
	c-3.678-1.597-7.787-1.43-11.789-1.66c-3.175,4.754-6.033,10.316-6.732,16.016C434.535,379.067,440.002,381.833,447.916,380.412z
	 M443.521,392.952c4.081,0.768,7.029-0.892,10.596-2.132c0.238-3.924,0.025-7.835-0.323-11.223
	c-1.387,0.655-2.813,1.205-4.275,1.694c-0.007,0.4-0.335,0.809-1.112,0.948c-1.005,0.181-2.094,0.324-3.209,0.412
	C444.079,386.016,443.464,389.516,443.521,392.952z M457.003,389.98c2.183-0.551,4.414-0.974,6.662-1.214
	c0.029-5.833,0.467-11.845,1.82-17.566c-1.52-0.223-3.007-0.838-4.448-2.079c-0.117,0.071-0.236,0.137-0.355,0.202
	c0.548,0.285,0.961,0.721,0.821,1.412c-0.189,0.941-1.081,1.607-1.911,2.12c2.216,1.608-0.926,3.86-2.46,4.879
	c-0.172,0.114-0.348,0.215-0.52,0.323C457.004,381.601,457.259,385.779,457.003,389.98z M471.354,358.278
	c-4.943,0.055-9.878,1.254-14.334,3.627c2.223-0.235,4.581-0.144,6.488,1.046c1.363,0.85,0.901,2.28-0.267,3.032
	c-0.372,0.24-0.76,0.434-1.157,0.596c0.189,0.121,0.333,0.283,0.416,0.488c0.239,0.039,0.451,0.125,0.604,0.275
	c0.893,0.887,1.873,1.444,2.921,1.77c1.009-3.592,2.413-7.043,4.348-10.229C470.54,358.608,470.923,358.401,471.354,358.278z
	 M148.361,152.164c0.311,0.09,0.526,0.282,0.526,0.612c0,24.333,0,48.666,0,73c0,0.04-0.012,0.078-0.021,0.117
	c2.877,1.373,6.475,3.478,9.951,4.887c0-21.931,0-43.861,0-65.793c-1.804-0.051,0.135-1.649,1.208-1.649c0.11,0,0.22,0,0.33,0
	c0.246-0.034,0.488-0.038,0.698,0c106.516,0,213.033,0,319.55,0c0.272-0.038,0.538-0.035,0.763,0.017
	c0.396,0.045,0.549,0.188,0.537,0.371c0.035,0.076,0.061,0.16,0.061,0.26c0,18.516,0,37.03,0,55.547
	c3.185,1.055,5.969,3.203,7.376,6.271c0.797-0.729,1.653-1.351,2.554-1.844c0-23.932,0-47.863,0-71.796
	C377.383,152.164,262.872,152.164,148.361,152.164z M136.801,316.569c0.021,0.107-0.003,0.211-0.05,0.311
	c2.617,1.071,5.188,2.273,7.891,3.117c1.636,0.51,3.275,0.938,4.718,0.934c0.448-0.24,0.982-0.358,1.413-0.21
	c0.017,0.006,0.035,0.012,0.053,0.018c1.403-0.409,2.471-1.515,2.914-3.824c0.005-0.024,0.02-0.047,0.028-0.071
	c2.22-11.273,14.733-14.824,21.281-22.985c11.17-13.92,1.674-31.563-4.773-45.409c-0.684,0.309-1.421,0.548-2.194,0.736
	c-2.668,1.225-6.018,0.954-8.751,0.341c-1.8-0.186-3.541-0.479-5.094-0.8c-0.114,0.601-0.256,1.208-0.412,1.816
	c-0.417,1.811-1.188,4.507-2.602,7.996c-1.736,4.283-4.585,5.782-6.469,6.305c-0.7,0.595-2.127,0.757-2.495,0.228
	c-0.779-0.04-1.222-0.468,0.055-1.035c0.605-2.608,0.433-5.091-0.268-7.534c-2.216,4.204-5.167,8.138-8.967,10.953
	c-4.51,3.342-8.734,7.139-13.778,9.605c6.146,4.037,8.543,12.324,5.157,19.02c-0.021,0.042-0.052,0.082-0.087,0.12
	c0.093,0.052,0.192,0.093,0.283,0.148c0.531,0.322-1.955,1.499-2.717,1.037c-1.887-1.146-4.728-2.054-6.663-0.508
	c0.001,0,0.002,0.001,0.002,0.001c0.295,0.26-0.216,0.664-0.883,0.932c-0.986,1.328-1.332,3.072-1.022,4.72
	c0.403,2.142,1.462,4.477,3.67,5.291c2.516,0.927,4.294-0.265,5.734-2.32c0.436-0.622,3.279-1.024,2.648-0.123
	c-0.171,0.244-0.358,0.474-0.553,0.697c0.346-0.032,0.655,0.008,0.847,0.156C130.062,309.611,135.63,310.356,136.801,316.569z
	 M119.622,400.323c0.389,0.336,0.764,0.709,1.148,1.07c-0.039-0.55-0.09-1.1-0.162-1.646c-0.046-0.043-0.082-0.093-0.102-0.154
	c-4.338-13.97-1.898-29.473,0.968-43.525c-4.937,0.915-10.487,0.721-14.123-2.586c-2.263,6.311-3.552,12.893-4.413,19.543
	c-0.767,5.923-1.114,10.63-4.048,15.867c-2.245,4.009-5.611,8.31-6.547,12.892c-0.062,0.299,0.347,5.441,1.006,4.3
	c1.138-1.971,1.951-4.063,2.782-6.176c0.303-0.771,3.096-1.076,2.863-0.486c-0.244,0.62-0.54,1.499-0.906,2.457
	c-0.539,1.732-0.907,3.726-0.477,5.381c0.053,0.204,0.422,0.96,0.381,1.003c0.387-0.403,0.698-0.861,0.925-1.375
	c0.451-1.024,0.737-2.085,0.966-3.179c0.019-0.088,0.078-0.173,0.166-0.252c0.322-1.462,0.702-2.788,0.834-3.539
	c0.124-0.709,2.981-1.204,2.859-0.506c-0.464,2.646-1.635,5.736-1.084,8.434c0.089,0.432,0.208,1.045,0.628,1.295
	c0.05-0.041,0.081-0.069,0.144-0.121c0.145-0.184,0.291-0.367,0.436-0.551c0.177-0.268,0.334-0.545,0.474-0.834
	c0.775-1.718,1.128-3.532,1.165-5.414c0.005-0.221,0.205-0.41,0.497-0.563c0.006-0.067,0.01-0.145,0.017-0.207
	c0.154-1.354,3.114-1.729,2.941-0.203c-0.174,1.522-0.205,3.085,0.325,4.549c0.188,0.614,0.451,1.196,0.775,1.751
	c0.265-0.965,0.383-1.971,0.585-2.948c0.471-2.271,1.127-4.46,3.3-5.612C115.922,397.938,118.1,399.009,119.622,400.323z
	 M134.119,451.024c-0.004-0.006-0.002-0.014-0.005-0.021c-0.096-0.031-0.186-0.071-0.259-0.13c-1.331-1.054-3.042-2.46-4.833-2.519
	c-2.192-0.072-3.795,1.668-5.168,3.154c-0.059,0.063-0.133,0.119-0.213,0.171c-0.269,0.249-0.661,0.436-1.132,0.451
	c-6.7,0.23-10.688,6.266-12.749,12.029c3.161,2.193,9.397,2.1,12.938,2.248c5.154,0.215,10.489,0.229,15.509-1.11
	C137.441,460.685,136.696,454.884,134.119,451.024z M138.188,424.782c-4.714,0.23-9.536-0.398-14.247-1.256
	c-0.002,8.335-0.011,16.669,0,25.003c1.367-1.071,2.919-1.9,4.648-2.022c2.375-0.167,4.354,0.623,6.22,1.874
	C138.101,441.2,138.64,432.506,138.188,424.782z M174.805,451.913c-0.783,0.254-1.69,0.199-1.81-0.289
	c-1.232-1.334-2.74-2.922-4.602-3.248c-1.967-0.346-3.614,0.861-5.076,2.019c-0.158,0.125-0.333,0.231-0.516,0.325
	c-2.484,3.974-3.193,9.801-3.965,14.354c4.953,1.541,10.372,1.744,15.521,1.529c3.558-0.148,9.782,0.222,13.049-1.848
	C185.318,458.872,181.315,452.824,174.805,451.913z M176.22,423.856c-5.479,0.902-11.094,0.666-16.642-0.173
	c2.731,7.854,0.413,16.784,3.434,24.653c1.713-1.111,3.636-1.967,5.678-1.822c1.993,0.141,3.609,0.963,5.053,2.123
	C175.846,440.462,176.216,432.374,176.22,423.856z M181.282,420.796c-1.281-12.492-2.653-25.104-2.84-37.67
	c-17.339,8.632-39.229,8.361-57.286,2.555c0.215,4.008,0.808,7.97,1.887,11.834c0.181,0.12,0.309,0.301,0.345,0.553
	c0.211,1.467,1.146,8.556-2.847,6.485c-0.986-0.511-1.752-1.282-2.564-2.015c-0.329,3.896-0.276,7.815,0.003,11.717
	c0.12,1.684,0.251,3.367,0.435,5.046c0.12,1.106,0.475,1.202-0.319,1.046c5.572,1.098,11.367,2.461,17.057,2.596
	c3.636,0.086,7.504,0.131,10.936-1.281c0.007-0.115,0.191-0.486,0.334-1.229c0.206-1.078,0.415-2.155,0.638-3.229
	c1.146-5.525,2.22-11.315,4.614-16.462c0.44-0.945,3.35-1.209,2.721,0.143c-0.973,2.089-1.729,4.305-2.357,6.572
	c0.047,0.069,0.084,0.146,0.102,0.237c0.647,3.483,1.051,7.014,1.455,10.532c0.138,1.198,0.74,2.351-0.217,2.132
	c0.586,0.134,1.174,0.26,1.765,0.374C163.796,422.404,172.793,423.712,181.282,420.796z M299.17,390.194
	c0.063-0.172,0.115-0.354,0.182-0.523c0.094-0.24,0.474-0.426,0.925-0.553c-0.491-0.121-0.973-0.26-1.432-0.436
	c-3.887-1.488-4.09-5.945-3.434-9.877c-15.691-0.005-31.381-0.013-47.072-0.021c-0.031,0-0.054-0.004-0.083-0.005
	c-0.558,1.632-1.114,3.265-1.671,4.897c-0.281,0.824-1.591,1.099-2.333,0.754c-7.509-1.849-15.018-3.696-22.526-5.545
	c-13.531,0-27.062,0-40.593,0c0.063,0.65,0.128,1.301,0.186,1.947c0.004,0.041-0.009,0.072-0.01,0.11
	c0.008,0.044,0.02,0.085,0.02,0.134c0.017,2.985,0.115,5.975,0.26,8.965C220.782,390.173,259.976,390.225,299.17,390.194z
	 M310.962,433.512c0.767,0.002,0.898,0.31,0.703,0.673c0.468,0.433,0.945,0.86,1.435,1.283c1.919,1.659,3.785,3.732,5.856,5.175
	c0.657,0.457,1.397,0.787,2.184,0.968c1.193,0.273,0.512,0.434,0.156-0.52c-0.068-0.186,0.281-0.427,0.761-0.625
	c-1.875-0.877-3.639-2.039-5.266-3.3c-0.534-0.414,2.044-1.55,2.721-1.025c1.147,0.89,2.362,1.719,3.62,2.445
	c0.855,0.495,1.754,0.993,2.709,1.278c0.042-0.254,0.044-0.504,0.022-0.756c-0.262-0.066-0.52-0.145-0.766-0.243
	c-2.228-0.897-4.296-2.258-6.19-3.725c-0.534-0.414,2.044-1.55,2.721-1.025c1.148,0.89,2.362,1.719,3.619,2.445
	c0.682,0.394,1.389,0.794,2.13,1.086c0.213-0.041,0.422-0.065,0.61-0.067c0.018-0.314-0.014-0.625-0.061-0.95
	c-0.118-0.039-0.237-0.078-0.352-0.124c-2.228-0.897-4.297-2.258-6.19-3.725c-0.534-0.414,2.044-1.549,2.721-1.025
	c1.147,0.89,2.362,1.719,3.62,2.445c0.855,0.495,1.754,0.994,2.709,1.279c0.062-0.377,0.033-0.745-0.02-1.129
	c-1.52-1.479-3.271-2.877-5.346-3.451c-0.995-0.275-0.441-0.885,0.343-1.261c-0.188-0.046-0.306-0.142-0.22-0.329
	c0.232-0.51,1.207-0.752,1.691-0.814c0.044-0.006,0.22-0.045,0.236-0.045c0.049-0.021,0.258-0.112,0.232-0.097
	c0.106-0.051,0.213-0.101,0.314-0.157c0.26-0.143,0.717-0.458,0.984-0.76c0.729-0.821-0.238-0.996-0.96-1.006
	c-0.179-0.002-0.29-0.048-0.369-0.108c-6.746-0.707-12.374-3.849-13.504-11.224c-1.157-7.556,0.513-15.186,1.03-22.748
	c-0.3-1.478-0.59-2.957-0.85-4.441c-3.548,1.146-8.008,1.994-11.905,1.535c-3.71,9.797-3.175,23.953,1.14,33.484
	C305.112,427.081,307.765,430.444,310.962,433.512z M370.715,455.948c-0.009-2.416-0.018-4.833-0.026-7.249
	c-0.068-0.023-0.101-0.054-0.076-0.093c0.027-0.043,0.049-0.087,0.075-0.129c-0.027-7.318-0.054-14.635-0.081-21.953
	c-0.819,1.098-1.653,2.184-2.512,3.249c-0.259,0.321-0.687,0.495-1.127,0.545c-1.238,6.448-2.914,12.722-6.437,18.601
	c-0.278,0.464-1.312,0.756-2.045,0.715c0,5.28,0,10.562,0,15.842C362.563,462.3,366.639,459.124,370.715,455.948z M396.042,431.799
	c-1.355-4.354-3.867-8.38-7.009-11.664c-1.552,6.637-5.78,11.952-11.383,16.563c-0.966,3.859-1.961,7.758-4.063,11.171
	c0.004,1.309,0.009,2.616,0.014,3.925c4.624-2.037,9.585-3.899,13.592-7C391.612,441.374,394.237,436.98,396.042,431.799z
	 M389.646,418.515c-0.078,0.156-0.199,0.289-0.346,0.402c0.687-0.418,1.82-0.599,2.292-0.111c3.076,3.184,5.608,7.126,7.076,11.346
	c0.375,0.038,0.617,0.176,0.53,0.443c-0.065,0.2-0.145,0.381-0.213,0.576c0.072,0.237,0.156,0.471,0.222,0.709
	c0.14,0.51-0.329,0.945-0.93,1.178c-1.285,3.076-2.931,5.616-4.863,7.795c3.534,1.765,10.062,4.664,12.142-0.451
	c1.633-4.012,0.744-8.903-0.514-12.896C403.013,421.062,395.392,406.972,389.646,418.515z M386.451,411.249
	c-0.383-2.321-0.935-4.601-1.569-6.859c-0.042-0.148-0.088-0.296-0.13-0.444c-1.171,1.153-2.435,2.178-3.765,3.108
	c-3.262,2.279-6.902,4.034-10.44,5.94c-0.044,0.023-0.11,0.048-0.184,0.071c-0.462,1.499-0.866,3.015-1.16,4.559
	c-0.193,1.015-0.374,2.028-0.55,3.041c0.941,0,1.885,0,2.827,0c0.313-0.168,0.681-0.254,1.05-0.192
	c1.059,0.177,1.199,0.843,0.961,1.626c0.024,6.568,0.049,13.137,0.072,19.706c0.489-1.612,0.902-3.253,1.311-4.885
	c-0.113-0.151-0.058-0.362,0.281-0.639C383.028,429.849,388.177,421.709,386.451,411.249z M440.775,389.785
	c0.249-2.334,0.785-4.695,1.589-7.059c-3.657-0.12-7.166-1.173-8.834-4.188c-16.809,0.006-33.618,0.008-50.427,0.01
	c-0.087,2.314-0.423,4.665-0.974,7.028c-0.02,0.088-0.036,0.176-0.058,0.264c0.204,0.711,0.424,1.424,0.65,2.138
	c0.191,0.602,0.39,1.204,0.593,1.808C402.469,389.785,421.622,389.785,440.775,389.785z M448.633,406.93
	c3.357-3.732,4.859-9.07,5.369-14.562c-3.419,1.141-6.792,2.204-10.412,2.059C443.925,398.915,445.465,403.239,448.633,406.93z
	 M467.995,417.639c0.004,0.001,0.008,0.001,0.012,0.001c-3.787-7.071-4.108-17.012-4.296-24.569
	c-0.025-1.032-0.038-2.076-0.042-3.125c-0.071,0.007-0.141,0.009-0.212,0.016c-2.285,0.221-4.451,0.798-6.57,1.464
	c-0.585,6.51-2.505,12.865-7.14,16.73C454.569,413.186,461.085,416.587,467.995,417.639z M470.302,453.014
	c-0.054-0.08-0.084-0.159-0.104-0.237c-0.215-0.063-0.391-0.172-0.494-0.339c-1.244-0.985-2.76-2.177-4.402-2.396
	c-1.785-0.239-3.199,0.862-4.402,2.077c0.754,0.454-0.615,1.832-1.707,1.82c-7.114-0.082-11.998,4.487-12.326,11.477
	c3.231,2.167,8.772,2.188,12.422,2.4c4.971,0.289,10.086,0.318,14.93-0.955c-0.404-2.221-0.876-4.434-1.434-6.619
	C472.182,457.879,471.678,455.075,470.302,453.014z M473.608,431.905c-3.102,0.48-6.311,0.86-9.275,0.435
	c-1.327-0.19-2.648-0.437-3.965-0.715c0.157,5.963,0.941,11.891,1.108,17.854c0.994-0.564,2.067-0.957,3.225-1.039
	c1.927-0.136,3.574,0.322,5.118,1.146C470.637,443.619,473.384,437.97,473.608,431.905z M478.449,419.416
	c-2.642,0.451-5.374,0.589-8.142,0.391c-0.325,0.046-0.642,0.031-0.884-0.073c-5.522-0.528-11.201-2.208-16.036-5.154
	c0,2.492,0,4.984,0,7.477c0,1.617,0,3.234,0,4.852c0,1.214-0.396,0.918,0.596,1.189c1.642,0.451,3.387,1.01,5.165,1.519
	c0.382-0.015,0.733,0.067,0.954,0.264c2.4,0.649,4.84,1.151,7.153,1.097c3.13-0.075,6.257-0.466,9.36-0.908
	C477.228,426.518,477.838,422.967,478.449,419.416z M490.593,412.361c-7.471-3.73-10.357-11.477-10.732-19.516
	c-4.209-1.65-8.527-2.931-13.295-3.004c0.006,0.556,0.014,1.109,0.027,1.658c0.201,8.119,0.338,19.336,4.992,26.477
	C478.641,418.257,485.339,416.196,490.593,412.361z M508.622,453.937c-0.278,0.004-0.499-0.036-0.677-0.101
	c-0.452,0.012-0.798-0.087-0.789-0.325c0.015-0.408,0.042-0.814,0.076-1.219c-1.024-1.016-2.214-1.968-3.575-2.207
	c-2.008-0.354-3.581,0.835-5.076,2.019c-0.064,0.052-0.152,0.097-0.25,0.138c-0.02,0.082-0.054,0.168-0.119,0.266
	c-0.137,0.205-0.248,0.439-0.375,0.656c-0.032,0.228-0.154,0.424-0.334,0.583c-1.965,3.756-2.627,8.827-3.307,12.908
	c5.193,1.534,10.894,1.652,16.252,1.35c3.123-0.178,8.112,0.015,11.388-1.404c-0.114-0.132-0.188-0.298-0.192-0.513
	C521.488,458.655,515.943,453.854,508.622,453.937z M510.978,433.657c-5.482,0.886-11.201,1.12-16.67,0.156
	c0.445,5.7,2.669,11.141,3.354,16.814c1.872-1.307,4.055-2.411,6.334-2.25c1.368,0.096,2.545,0.504,3.616,1.11
	C508.567,444.178,510.669,439.084,510.978,433.657z M511.009,405.751c0-0.016,0.008-0.029,0.01-0.045
	c-3.797,0.707-7.73,0.95-11.544,0.479c-2.954,4.381-7.091,7.905-11.911,10.283c-0.549,3.757-0.713,7.526-0.181,11.302
	c0.306,2.168,1.196,2.448,3.254,3.265c0.639,0.253,1.287,0.476,1.938,0.683c0.594-0.108,1.229,0.012,1.513,0.439
	c5.54,1.459,11.459,1.419,17.137,0.56c0.188-0.192,0.478-0.349,0.804-0.462C511.505,423.432,511.044,414.589,511.009,405.751z
	 M520.655,360.322c-4.408-0.063-8.785-0.12-13.178,0.462c0,2.756,0,5.512,0,8.267c1.475-0.069,2.986,0.106,3.962,1.344
	c0.7,0.888-2.091,1.89-2.693,1.125c-1.486-1.886-4.816-0.313-6.794-0.131c-1.278,0.118-2.67,0.159-3.775-0.444
	c-0.506,0.064-0.998-0.069-1.228-0.5c-0.619-1.16-1.145-2.373-1.832-3.497c-0.458-0.749-1.326-2.39-2.348-2.519
	c-0.009,0.03-0.021,0.068-0.039,0.139c-0.052,0.19-0.05,0.439-0.039,0.635c0.03,0.547,0.18,1.104,0.358,1.621
	c0.344,0.994,0.785,1.939,1.377,2.813c0.345,0.508,0.135,0.993-0.293,1.329c0.812,0.861-1.412,2.142-2.473,1.519
	c-1.313-0.769-2.723-1.423-4.155-1.934c-0.796-0.283-1.616-0.585-2.463-0.672c-0.058-0.006-0.241,0.01-0.384,0.008
	c1.314,1.691,4.135,2.613,6.107,3.229c1.761,0.551-0.355,2.425-1.656,2.02c-0.911-0.285-3.613-1.229-5.529-2.485
	c0.062,0.132,0.141,0.257,0.208,0.354c0.569,0.821,1.296,1.529,2.062,2.166c1.266,1.053,2.949,2.454,4.62,2.756
	c0.646,0.117,0.737,0.76,0.316,1.181c-0.529,0.528-1.339,0.678-2.049,0.55c-1.325-0.24-2.718-0.996-3.983-1.923
	c0.908,2.337,3.527,4.164,5.873,4.494c0.682,0.096-0.164,0.668-0.354,0.758c-0.617,0.292-1.345,0.465-2.025,0.369
	c-0.37-0.052-0.743-0.144-1.115-0.257c1.541,3.374,7.313,4.434,10.169,2.171c0.714-0.564,1.864-0.374,2.287,0.141
	c0.011,0.006,0.025,0.009,0.036,0.015c3.656,2.072,11.914,7.095,16.081,3.688c2.28-1.864,3.368-4.757,3.937-7.576
	C521.048,374.577,520.675,367.382,520.655,360.322z M491.646,321.958c0.013,0.042,0.024,0.084,0.036,0.127
	c1.16,4.179,0.704,9.129-1.829,12.499c-3.944,5.247-10.796,5.313-16.573,3.587c-0.047-0.001-0.095-0.002-0.141-0.008
	c-0.124,0.048-0.252,0.088-0.387,0.11c-3.646,0.601-9.802,0.648-11.191-3.815c-0.905-2.906,0.527-5.6,2.609-7.571
	c-14.379,1.975-18.039,13.789-22.49,26.032c0.345-0.019,0.666,0.022,0.895,0.123c3.862,0.377,7.867,0.134,11.602,1.117
	c0.046-2.299-0.012-4.603,0.037-6.797c0.021-0.969,2.896-1.477,2.898-0.776c0,0.02,0,0.04,0,0.06c0,0.001-0.001,0.002-0.001,0.004
	c-0.101,4.686,0.271,9.907-0.918,14.502c-0.007,0.025-0.012,0.052-0.019,0.077c6.126-2.98,13.067-4.404,19.834-3.942
	c5.576,0.381,11.021,2.05,15.786,5.151c0.031-0.012,0.055-0.028,0.087-0.039c3.997-1.392,6.02,3.44,7.501,6.331
	c0.21,0.035,0.385,0.112,0.49,0.246c1.034,1.313,2.962,0.949,4.706,0.546c0-6.392,0-12.784,0-19.177
	c0-0.775,2.898-1.168,2.898-0.777c0,3.085,0,6.17,0,9.254c5.445-0.76,10.863-0.529,16.341-0.473
	c0.995-9.217,0.252-21.364-7.62-27.468c-0.042-0.033-0.078-0.071-0.121-0.104c-3.336-2.535-7.594-3.807-11.517-5.15
	c-0.751-0.257-1.503-0.51-2.257-0.759c-3.429-1.134-6.895-2.164-10.435-2.869C491.795,321.983,491.721,321.972,491.646,321.958z
	 M329.772,333.777c0.779-1.112-2.148-0.88-2.705-0.086c-1.393,1.988-5.064,4.332-7.26,2.308c-0.771-0.711-3.497,0.4-2.688,1.146
	C320.74,340.484,327.387,337.183,329.772,333.777z M327.715,320.305c0.655,0.014,1.503-0.171,2.05-0.549
	c1.97-1.364,4.181-0.407,5.672,1.213c0.48,0.521,3.146-0.524,2.734-0.973c-2.763-3-7.49-2.449-10.615-0.285
	C327.124,320.01,327.137,320.293,327.715,320.305z M301.333,319.784c0.464,0.83,3.223-0.196,2.898-0.777
	c-1.999-3.582-8.672-3.625-10.673-0.016c-0.316,0.571,2.436,0.342,2.875-0.449C297.513,316.595,300.541,318.363,301.333,319.784z
	 M299.396,312.138c0.956-0.445,2.015-0.557,3.051-0.39c0.694,0.112,1.583-0.236,1.882-0.906c0.304-0.68-0.276-1.19-0.903-1.291
	c-1.807-0.291-3.686,0.007-5.34,0.776c-0.551,0.256-1.098,0.962-0.668,1.558C297.858,312.495,298.797,312.416,299.396,312.138z
	 M334.378,312.755c1.396-0.85,2.582,0.012,3.286,1.32c0.652,1.213,3.396,0.088,2.645-1.307c-1.412-2.625-4.732-3.364-7.243-1.834
	c-0.516,0.313-1.125,0.927-0.666,1.564C332.81,313.068,333.818,313.097,334.378,312.755z M355.46,331.077
	c0.624-0.02,1.508-0.227,1.926-0.739c0.689-0.843,1.281-0.821,2.293-0.509c0.65,0.2,1.458-0.013,2.038-0.323
	c0.292-0.157,0.967-0.729,0.308-0.933c-2.49-0.77-5.586-0.243-7.297,1.851C354.301,330.945,355.091,331.089,355.46,331.077z
	 M309.635,327.862c-0.505-0.757-2.045-1.735-1.75-2.739c0.272-0.926,0.499-1.863,0.731-2.8c0.304-1.217,0.618-2.43,0.963-3.635
	c0.187-0.65,0.41-1.285,0.647-1.918c0.135-0.361,0.921-1.364,0.243-1.134c1.73-0.589,1.242-2.558-0.523-1.957
	c-2.512,0.854-3.025,4.211-3.642,6.454c-0.444,1.616-0.808,3.253-1.251,4.869c-0.517,1.887,0.985,2.719,1.927,4.127
	C307.699,330.207,310.466,329.105,309.635,327.862z M291.255,453.317c0.018,0.017,0.026,0.034,0.012,0.056
	c-2.959,4.304-5.918,8.608-8.877,12.913c-0.002,0.342-0.402,0.662-0.91,0.869c-0.333,0.207-0.714,0.353-1.057,0.353
	c-13.573,0-27.147,0-40.721,0c-0.5,0-0.755-0.124-0.84-0.308c-0.177-0.18-0.214-0.443-0.014-0.797
	c6.072-10.716,12.146-21.432,18.218-32.148c0.509-0.896,2.602-1.055,2.868-0.291c10.42,6.381,20.84,12.763,31.261,19.144
	C291.282,453.161,291.292,453.234,291.255,453.317z M278.551,465.611c-6.688-9.556-13.377-19.111-20.066-28.666
	c-5.415,9.555-10.829,19.11-16.244,28.666C254.344,465.611,266.447,465.611,278.551,465.611z M288.304,454.051
	c-8.383-5.134-16.766-10.268-25.149-15.401c6.01,8.586,12.02,17.172,18.03,25.758C283.558,460.955,285.931,457.503,288.304,454.051z
	 M233.581,445.051c0.148,0.159,0.242,0.37,0.242,0.645c0,5.18,0,10.358,0,15.538c0,0.622-0.612,1.041-1.278,1.167
	c-2.947,1.333-5.895,2.665-8.843,3.996c-0.391,0.28-0.957,0.413-1.451,0.36c-0.561,0.268-1.281,0.517-1.557,0.517
	c-6.362,0-12.724,0-19.085,0c-0.817,0.264-1.783,0.249-1.783-0.194c0-6.073,0-12.146,0-18.219c0-0.701,1.331-1.159,2.188-1.144
	c4.025-1.034,8.051-2.067,12.077-3.103c0.39-0.27,0.877-0.479,1.271-0.479c5.848,0,11.695,0,17.543,0
	c0.769,0,0.935,0.265,0.789,0.586C233.752,444.815,233.726,444.927,233.581,445.051z M205.896,447.852c5.238,0,10.478,0,15.717,0
	c0.514-0.442,1.439-0.595,2.029-0.318c1.551-0.559,3.102-1.118,4.652-1.677c-4.68,0-9.359,0-14.039,0
	c-0.176,0-0.31-0.018-0.426-0.043C211.185,446.493,208.54,447.173,205.896,447.852z M221.291,466.107
	c-0.03-0.094-0.052-0.194-0.052-0.31c0-5.567,0-11.137,0-16.704c-6.172,0-12.343,0-18.515,0c0,5.671,0,11.343,0,17.014
	C208.913,466.107,215.103,466.107,221.291,466.107z M224.177,463.871c2.235-1.01,4.47-2.02,6.705-3.03c0-4.904,0-9.809,0-14.712
	c-2.234,0.806-4.471,1.611-6.705,2.417C224.177,453.655,224.177,458.763,224.177,463.871z" fill="#0984E3"></path>
</svg>