<?xml version="1.0" standalone="no"?>
<svg version="1.1" id="Layer_1" xmlns="http://www.w3.org/2000/svg" xmlns:xlink="http://www.w3.org/1999/xlink" x="0px" y="0px" width="595.279px" height="595.281px" viewBox="0 0 595.279 595.281" enable-background="new 0 0 595.279 595.281" xml:space="preserve">
<path id="color_x5F_2" fill="#FBC02D" d="M340.617,260.332c-0.75,3.684-4.375,4.901-7.541,5.752
	c-0.256,0.069-0.52,0.141-0.781,0.211c-4.029,0.844-9.044,1.799-12.35,2.418c-1.923,0.106-3.801,0.021-5.552-0.373
	c-0.16-0.035-0.398-0.011-0.661,0.053c-1.283-3.922-2.283-7.907-2.737-12.02c2.781,0,5.563,0,8.345,0c0.885,0,3.148-1.34,1.209-1.34
	c-3.229,0-6.456,0-9.684,0c-0.125-1.566-0.172-3.152-0.117-4.761c0.055-1.57-2.896-1.185-2.942,0.192
	c-0.625,18.262,10.987,33.515,14.355,50.959c0.015,0.074,0.04,0.141,0.068,0.201c-0.037,0.074-0.065,0.15-0.075,0.23
	c-0.93,7.857-16.509,5.102-22.021,5.682c-7.094,0.746-22.468,3.031-25.74-5.557c-0.047-0.125-0.128-0.223-0.227-0.301
	c-2.948-7.334-3.681-16.264-5.366-23.911c-1.009-4.58-2.016-9.172-3.263-13.694c-1.319-4.785-4.98-7.651-8.689-10.833
	c-10.782-9.249-23.825-14.146-35.189-22.402c-5.709-4.146-6.244-8.943-6.5-15.646c-0.233-6.088,0.172-12.174,0.238-18.26
	c4.004-0.24,8.475-0.404,12.102,0.967c0.004,3.621,0.09,7.243,0.256,10.86c0.11,2.386-0.431,8.771,1.889,10.375
	c4.543,3.14,9.281,6.083,14.268,8.462c6.841,3.264,14.561,3.762,21.698,6.145c0.099,0.175,0.202,0.348,0.319,0.515
	c0.232,0.331,0.903,0.333,1.528,0.155c0.789,0.308,1.571,0.636,2.339,1.008c0.88,0.427,3.533-0.834,2.298-1.434
	c-1.276-0.619-2.58-1.145-3.899-1.61c-0.556-1.211-0.599-2.593-0.138-3.868c0.012-0.033,0.011-0.063,0.015-0.092
	c6.006-1.269,16.375-6.924,19.091,0.675c0.197,0.55,0.993,0.627,1.706,0.438c9.417,1.291,16.809,6.826,24.605,11.85
	c7.182,4.627,15.384,7.16,22.512,11.852c-0.094,0.152-0.057,0.295,0.198,0.393C339.313,254.819,341.33,256.826,340.617,260.332z"></path>
<path id="color_x5F_1" d="M265.058,213.647c0.136,0.507-1.017,0.829-1.307,0.919c-1.41,0.436-2.904,0.511-4.321,0.072
	c-0.645-0.199,0.042-0.719,0.325-0.864c0.566-0.289,1.399-0.537,2.033-0.341c0.585,0.181,1.094,0.253,1.679,0.072
	C263.756,213.417,264.927,213.156,265.058,213.647z M262.053,206.552c0.722,0.024,1.441-0.255,1.91-0.803
	c0.369-0.434,0.43-1.009,0.432-1.554c0.001-0.655-0.743-0.722-1.262-0.659c-0.438,0.053-1.639,0.383-1.641,1.006
	c0,0.379,0.02,0.813-0.236,1.113C260.786,206.207,261.652,206.537,262.053,206.552z M265.385,198.837
	c-0.63-0.41-1.502-0.299-2.083,0.154c-0.481,0.375-0.757,1.17-0.135,1.575c0.848,0.554,1.854,0.938,2.454,1.788
	c0.802,1.137,3.548-0.027,2.645-1.307C267.526,200.001,266.426,199.515,265.385,198.837z M393.495,398.09
	c-0.011,0.395,2.875,0.031,2.897-0.777c0.523-19.158,34.725-17.703,36.771-0.555c0.063,0.516,2.984-0.057,2.897-0.777
	c-1.255-10.518-14.674-13.863-23.485-13.521C403.17,382.82,393.778,387.709,393.495,398.09z M434.495,443.424
	c-2.234-9.289-13.899-11.561-22.059-10.451c-9.813,1.334-18.77,7.189-19.043,17.883c-0.021,0.857-2.284,1.428-2.794,0.711
	c-0.003,0-0.007-0.002-0.011-0.004c-11.062-6.295-25.065,1.586-28.796,12.857c1.784,0.453,3.563,1.096,5.319,1.971
	c1.08,0.539-1.599,1.654-2.337,1.287c-1.235-0.615-2.469-1.1-3.697-1.48c-0.781,0.572-2.75,0.77-2.572,0.059
	c0.056-0.223,0.125-0.439,0.188-0.66c-11.207-2.184-21.524,4.838-26.027,15.541c0.043,0.193-0.067,0.436-0.271,0.67
	c-0.384,0.979-0.727,1.984-1.01,3.018c-0.24,0.873-3.124,1.305-2.881,0.424c0.243-0.885,0.533-1.748,0.852-2.596
	c-13.414,0-26.827,0-40.241,0c-0.438,0.129-0.894,0.141-1.211,0c-0.876,0-1.751,0-2.627,0c-1.96,0-0.183-1.893,1.062-1.893
	c0.345,0,0.69,0,1.035,0c-0.284-2.861-0.875-5.596-1.778-8.158c-0.195,0-0.391,0-0.586,0c-1.411,0-0.837-0.926,0.034-1.445
	c-2.651-6.479-7.389-11.76-14.301-15.084c-10.491-5.041-25.68-8.189-35.757-0.908c0.146,1.357,0.298,2.715,0.441,4.072
	c0.089,0.844-2.83,1.422-2.897,0.777c-0.09-0.855-0.186-1.709-0.277-2.564c-0.822,0.004-1.504-0.354-0.835-1.143
	c0.244-0.287,0.441-0.576,0.617-0.869c-0.244-2.264-0.486-4.527-0.738-6.791c-2.336-3.373-6.835-6.268-9.448-7.521
	c-8.494-4.08-19.34-5.441-26.07,2.461c-0.707,0.83-3.507,0.732-2.361-0.611c2.174-2.555,4.816-4.32,7.702-5.443
	c-3.122-17.43-27.809-22.566-40.545-12.369c-0.532,0.426-3.22,0.719-2.618,0.238c13.588-10.881,42.366-8.797,46.04,11.254
	c5.978-1.4,12.645-0.398,18.333,2.139c2.384,1.063,5.716,2.945,8.452,5.311c-5.955-52.498-13.767-104.773-19.116-157.344
	c-0.006-0.056,0.003-0.108,0.021-0.162c-0.095,0-0.189,0-0.284,0c-1.961,0-0.083-1.781,1.091-1.781c3.778,0,7.556,0,11.334,0
	c0.835,0,0.97,0.323,0.764,0.694c0.505-0.021,0.924,0.115,0.971,0.475c0.729,5.558,1.459,11.114,2.189,16.671
	c14.535,0,29.069,0,43.604,0c-1.128-2.879-1.55-6.214-2.205-9.199c-1.237-5.639-2.431-11.286-3.693-16.919
	c-0.992-4.426-1.859-8.967-3.292-13.277c-0.718-2.162-2.393-3.666-4.029-5.223c-3.607-3.433-7.527-6.458-11.601-9.312
	c-5.18-3.627-10.596-6.495-16.139-9.536c-5.184-2.845-11.341-5.844-15.195-10.493c-3.149-3.798-2.926-9.799-2.999-14.475
	c-0.089-5.757,0.221-11.499,0.271-17.251c-7.05-3.135-10.095-14.637-4.382-20.258c0.418-0.412,1.416-0.549,2.071-0.402
	c0.771-1.139,1.915-1.842,3.187-2.229c1.404-3.61,2.808-7.221,4.211-10.831c-0.427-0.383-0.854-0.766-1.281-1.147
	c-5.347-4.794-10.694-9.589-16.041-14.384c-3.034-2.721-1.391-4.69,2.342-5.725c7.478-2.068,15.772-1.281,23.002-4.273
	c7.48-3.098,8.458-14.984,11.72-21.595c1.498-3.034,5.272-8.724,9.447-5.735c9.173,6.566,6.026,21.827,15.636,28.33
	c5.566,3.768,12.12,2.031,18.37,3.22c1.774,0.338,8.175,1.507,8.561,4.118c0.521,3.534-4.59,7.433-6.656,9.599
	c-3.833,4.019-7.432,8.18-11.751,11.677c1.355,5.221,2.71,10.441,4.066,15.661c0.047,0.069,0.097,0.136,0.143,0.206
	c4.997,3.155,15.729,5.393,14.343,12.991c0.271,0.032,0.533,0.073,0.786,0.127c1.467-0.076,3.317,0.165,4.568,1.552
	c2.874,3.184,2.21,6.023,0.876,9.622c-0.256,0.949-0.621,1.887-1.084,2.781c-1.162,2.625-3.826,5.493-7.034,7.511
	c-0.953,0.667-1.952,1.264-2.977,1.762c0.321,1.313,0.793,2.654,1.704,3.633c0.195,0.209,0.027,0.461-0.303,0.685
	c1.499,0.563,2.754,1.642,3.632,3.44c9.478,1.226,16.862,6.427,24.716,11.485c7.945,5.119,17.018,7.938,24.785,13.335
	c0.299,0.208,0.41,0.442,0.401,0.674c6.57,3.286,4.235,10.848-2.286,13.346c-6.405,2.455-15.754,4.854-22.961,3.888
	c3.539,10.188,8.727,20.013,10.773,30.619c0.038,0.193,0.013,0.375-0.052,0.541c0.05,0.1,0.075,0.217,0.06,0.357
	c-0.116,0.979-0.392,1.83-0.793,2.578c0.236,0.098,0.409,0.264,0.453,0.521c1.764,10.328,2.454,21.289,1.444,31.719
	c-0.554,5.727-1.903,11.285-1.981,17.059c-0.084,6.254,0.385,12.502,1.104,18.709c1.2,10.363,2.891,20.646,4.762,30.902
	c5.192-5.256,14.477-7.547,22.412-6.104c0.03-22.881,42.34-34.449,53.597-14.287c0.315,0.566-2.44,1.598-2.897,0.777
	c-10.612-19.012-49.087-7.951-47.77,13.889c0.007,0.111-0.032,0.217-0.103,0.314c4.443,1.396,8.185,4.127,10.103,8.354
	c0.208,0.461-2.591,1.451-2.897,0.777c-5.298-11.674-25.983-11.76-31.968-1.127c3.217,17.357,6.888,34.643,9.548,52.092
	c0.093,0.607-0.523,1.084-1.213,1.289c-0.184,0.178-0.471,0.342-0.884,0.453c-0.027,0.008-0.054,0.014-0.08,0.02
	c1.019,3.027,1.953,6.035,2.125,9.25c5.537-3.936,12.335-5.848,19.229-4.83c4.485-11.682,19.553-19.178,31.398-14.643
	c1.407-10.693,11.95-16.801,22.175-17.912c8.948-0.975,22.058,0.869,24.566,11.297C437.645,443.689,434.741,444.445,434.495,443.424
	z M322.395,372.91c-0.626-5.672-1.152-11.387-1.144-17.1c0.01-5.48,1.027-10.572,1.658-15.982
	c1.282-10.977,0.863-22.314-0.901-33.238c-5.565,3.822-17.104,2.219-22.221,2.744c-6.077,0.627-17.124,2.113-23.699-1.48
	c-2.636,6.889-6.33,13.275-9.915,19.711c-4.274,7.674-10.191,14.867-13.61,22.959c-3.192,7.555-2.459,15.539-1.17,23.457
	c1.272,7.813,5.272,14.883,5.979,22.805l1.017-0.416l-1.033,1.023h-0.092c-0.042,0.059-0.093,0.115-0.153,0.168
	c0.027,0,0.055-0.004,0.083-0.006l0.163-0.162l17.28,0.303c-0.428-1.908-0.85-3.818-1.158-5.748
	c-0.534-3.344-0.38-6.74-0.966-10.061c-0.823-4.662-3.529-11.367-1.675-16.039c0.907-2.283,2.473-3.77,4.242-5.443
	c0.517-0.488,1.004-1.002,1.495-1.514c-0.087-0.293,0.413-0.752,0.99-1.045c1.866-2.041,3.604-4.191,5.402-6.303
	c3.781-4.439,7.665-8.826,11.322-13.383c0.011-0.08,0.019-0.162,0.03-0.244c0.062-0.428,0.447-0.754,0.917-0.947
	c1.122-1.424,2.223-2.863,3.284-4.332c0.489-0.676,2.995-0.736,2.852-0.537c-1.322,1.828-2.705,3.609-4.12,5.367
	c0.006,0.064,0.009,0.133-0.002,0.209c-0.646,4.479-0.224,9.246-0.076,13.744c0.241,7.355,0.606,14.709,1.086,22.053
	c0.482,7.398,0.911,14.375,3.049,21.459c1.834,6.076,3.701,12.145,5.573,18.209c0.226,0,0.452,0,0.678,0
	c0.797,0,0.252,0.367-0.468,0.684c0.723,2.34,1.439,4.682,2.162,7.021c0.192,0,0.386,0,0.58,0c1.448,0,0.769,0.936-0.142,1.426
	c0.818,2.658,1.643,5.313,2.454,7.973c2.75,8.998,6.289,18.195,7.97,27.479c0.041,0.225-0.013,0.43-0.122,0.613
	c0.805,0.133,1.906,0.309,3.122,0.488c3.798,0.459,7.594,0.531,11.378-0.08c-0.111-0.473,1.777-1.125,2.569-0.975
	C332.69,429.406,325.549,401.459,322.395,372.91z M268.898,412.352c1.301-0.057,2.345-0.279,3.192-0.633
	c-6.885,1.189-21.424,0.965-28.337,0.773c1.847,0.555,4.601,0.34,6.21,0.32C256.253,412.744,262.613,412.631,268.898,412.352z
	 M271.976,413.141c10.585,0,21.171,0,31.756,0c-1.911-6.184-3.813-12.369-5.665-18.568c-2.274-7.617-2.42-15.529-2.902-23.438
	c-0.241-3.945-0.628-8.049-0.945-12.189c-0.293,0.137-0.597,0.229-0.846,0.229c-4.907,0-9.813,0-14.72,0
	c-1.721,1.549-3.804,3.205-4.62,5.262c-2.233,5.625,0.959,12.141,1.542,17.82c0.71,6.938,1.958,13.518,3.149,20.393
	c0.034,0.195-0.201,0.389-0.547,0.551C278.359,408.371,276.939,411.885,271.976,413.141z M293.927,341.494
	c-2.688,3.186-5.438,6.32-8.111,9.512c-1.825,2.178-3.578,4.492-5.542,6.563c4.616,0,9.231,0,13.847,0
	C293.731,352.17,293.509,346.727,293.927,341.494z M234.514,348.904c5.393,0,10.785,0,16.177,0
	c3.352-6.408,7.755-12.197,11.244-18.541c3.208-5.83,6.631-11.57,9.39-17.623c-14.057,0-28.113,0-42.17,0
	c2.258,11.98,3.446,24.117,5.143,36.184C234.373,348.912,234.445,348.904,234.514,348.904z M332.295,266.295
	c0.263-0.071,0.525-0.143,0.781-0.211c3.166-0.852,6.791-2.069,7.541-5.752c0.713-3.507-1.305-5.513-4.435-6.711
	c-0.254-0.099-0.292-0.239-0.198-0.394c-7.128-4.689-15.33-7.224-22.512-11.851c-7.797-5.022-15.188-10.56-24.605-11.851
	c-0.713,0.189-1.509,0.112-1.706-0.438c-2.717-7.598-13.085-1.942-19.091-0.676c-0.003,0.03-0.002,0.06-0.015,0.093
	c-0.461,1.275-0.418,2.657,0.138,3.868c1.319,0.467,2.623,0.99,3.899,1.609c1.235,0.601-1.417,1.86-2.298,1.435
	c-0.768-0.372-1.55-0.7-2.339-1.009c-0.625,0.179-1.296,0.177-1.528-0.154c-0.117-0.167-0.22-0.34-0.319-0.516
	c-7.138-2.382-14.857-2.879-21.698-6.144c-4.987-2.379-9.725-5.322-14.268-8.462c-2.32-1.604-1.779-7.989-1.889-10.375
	c-0.167-3.617-0.252-7.239-0.256-10.86c-3.627-1.372-8.097-1.207-12.102-0.967c-0.066,6.086-0.471,12.172-0.238,18.26
	c0.257,6.703,0.792,11.5,6.5,15.646c11.365,8.256,24.407,13.153,35.189,22.401c3.709,3.183,7.371,6.049,8.689,10.834
	c1.247,4.522,2.254,9.113,3.263,13.694c1.685,7.646,2.418,16.576,5.366,23.912c0.099,0.078,0.179,0.174,0.227,0.299
	c3.272,8.588,18.646,6.305,25.739,5.559c5.513-0.58,21.092,2.176,22.021-5.682c0.011-0.082,0.038-0.158,0.075-0.23
	c-0.028-0.063-0.054-0.129-0.068-0.203c-3.367-17.444-14.98-32.698-14.355-50.958c0.047-1.377,2.997-1.764,2.943-0.192
	c-0.056,1.607-0.01,3.193,0.116,4.761c3.228,0,6.455,0,9.684,0c1.939,0-0.324,1.34-1.209,1.34c-2.781,0-5.563,0-8.345,0
	c0.454,4.111,1.454,8.097,2.737,12.019c0.263-0.063,0.501-0.088,0.661-0.052c1.75,0.395,3.629,0.479,5.552,0.372
	C324.129,268.477,328.522,267.31,332.295,266.295z M230.383,197.117c0.003,0.026,0.012,0.051,0.012,0.078
	c-0.001,3.934,0.074,7.877,0.31,11.803c0.167,2.799-0.337,7.667,2.258,9.4c4.749,3.173,9.797,6.703,15.222,8.604
	c5.439,1.905,11.156,2.76,16.667,4.314c-0.067-0.801,0.025-1.62,0.314-2.42c0.098-0.271,0.416-0.491,0.805-0.648
	c-0.093-0.267,0.074-0.63,0.402-0.928c-0.737-2.689-1.995-4.204-4.929-4.655c-1.827-0.28-3.869-0.56-5.453-1.604
	c-4-2.638-2.744-6.849-1.656-10.763c-0.028-0.021-0.058-0.041-0.08-0.065c-1.109-1.337-2.311-3.657-1.867-5.46
	c0.271-1.102,1.477-1.574,2.497-1.719c0.475-0.067,0.923-0.029,1.351,0.079c1.616-3.654,1.865-7.771,4.027-11.181
	c-0.605,0.168-1.283,0.129-1.645-0.277c-2.391-2.691-4.798-5.37-7.222-8.032c-1.779-1.953-3.56-3.905-5.38-5.82
	c-0.724-0.761-1.446-1.525-2.198-2.259c-0.167-0.162-0.323-0.281-0.453-0.373c-2.734,2.763-5.47,5.525-8.204,8.288
	c-0.003,0.003-0.008,0.006-0.011,0.009c0.021,0.071,0.049,0.133,0.066,0.209C236.219,188.31,233.664,193.945,230.383,197.117z
	 M255.869,203.919c-0.204-0.06-0.438-0.056-0.499,0.091c-0.058,0.138-0.09,0.278-0.113,0.421c0.213-0.01,0.387-0.026,0.519-0.051
	C255.76,204.248,255.789,204.094,255.869,203.919z M281.775,220.609c-1.833,0.487-3.664,0.563-5.357-0.016
	c-0.334-0.114-0.131-0.348,0.274-0.572c-1.693,0.38-3.085-0.309-4.197-1.931c-0.19-0.278,1.968-1.269,2.716-0.917l2.58-1.074
	c0.05-0.214,0.104-0.43,0.141-0.636c0.231-1.234,0.357-2.638,0.005-3.862c-0.092-0.319-0.216-0.694-0.451-0.954
	c-0.505,0.383-1.235,0.563-1.843,0.618c-0.209,0.02-1.003-0.008-0.765-0.34c-0.261,0.031-0.489,0.019-0.637-0.073
	c-4.397-2.726-2.514-8.804-1.176-12.86c-3.542-0.119-7.758-2.05-10.513-4.92c-1.988,3.393-2.11,7.624-3.889,11.136
	c-0.077,0.151-0.195,0.281-0.338,0.393c-0.217,0.267-0.725,0.517-0.846,0.563c-0.529,0.207-1.375,0.429-1.892,0.069
	c-0.114-0.079-0.232-0.155-0.349-0.232c0.011,0.151,0.029,0.305,0.057,0.455c0.221,1.2,0.709,2.397,1.438,3.391
	c0.403-0.001,0.688,0.076,0.638,0.261c-1.414,5.21-2.615,10.779,4.351,12.113c3.967,0.76,6.371,1.188,7.53,5.251
	c4.015-0.956,9.307-3.17,13.666-3.125C282.388,222.515,282.034,221.568,281.775,220.609z M217.044,171.639
	c0.493-0.342,1.184-0.435,1.731-0.26c2.705,0.857,4.394,2.688,4.936,5.491c0.58,2.998,0.528,6.393,3.73,7.842
	c0.043,0.02,0.074,0.043,0.113,0.063c1.269-1.354,2.707-2.465,4.628-2.816c0.427-0.078,0.831-0.087,1.203-0.032
	c2.53-2.556,5.06-5.11,7.59-7.667c0.384-0.389,0.919-0.641,1.464-0.645c0.22-0.527,0.97-0.85,1.494-0.868
	c1.307-0.048,2.25,1.235,3.081,2.083c1.958,1.992,3.851,4.051,5.736,6.111c2.44,2.67,4.856,5.361,7.263,8.062
	c-0.622-1.916-0.543-3.997,0.603-6.104c2.166-3.98,6.745-4.7,10.43-3.105c-1.001-3.859-2.003-7.717-3.005-11.575
	c-0.384-0.075-0.54-0.265-0.157-0.604c-0.074-0.285-0.148-0.569-0.222-0.854c-0.138-0.53,1.646-1.118,2.483-1.016
	c4.395-3.786,8.337-8.232,12.19-12.521c2.944-3.274,6.499-6.712,0.499-8.686c-8.844-2.908-20.12,0.729-26.454-7.939
	c-2.913-3.987-4.135-8.63-5.664-13.255c-1.087-3.285-3.152-10.793-6.997-12.024c-3.091-0.991-8.175,16.444-9.096,18.678
	c-2.257,5.473-5.026,8.146-10.861,9.68c-6.623,1.742-13.64,1.576-20.209,3.395c-2.522,0.698-2.733,1.665-1.022,3.2
	c2.195,1.968,4.39,3.936,6.584,5.903c3.528,3.163,7.056,6.326,10.583,9.49c0.655-0.054,1.189,0.094,1.024,0.519
	c-0.039,0.1-0.077,0.198-0.115,0.298c0.007,0.006,0.014,0.013,0.021,0.019c0.238,0.213,0.053,0.486-0.311,0.726
	C219.227,166.026,218.135,168.832,217.044,171.639z M214.605,195.401c0.216,0.04,0.408,0.118,0.549,0.244
	c4.313-0.254,9.373-0.599,13.592,0.647c2.086-2.502,3.444-5.847,3.695-9.028c0.088-1.11,0.188-2.532-0.399-3.542
	c-0.12-0.207-0.253-0.428-0.465-0.557c-0.028,0.024-0.041,0.039-0.075,0.067c-0.793,0.666-1.475,1.405-2.133,2.206
	c-0.245,0.298-0.882,0.471-1.494,0.555c-0.411,0.577-1.398,1.017-2.1,0.697c-2.613-1.182-3.974-3.166-4.454-5.975
	c-0.447-2.618-0.62-5.164-2.664-6.604c-1.248,3.204-1.621,6.411-0.601,9.868c0.398,1.35-2.497,2.136-2.897,0.774
	c-1.001-3.393-0.758-6.637,0.295-9.817c-0.268,0.067-0.538,0.112-0.778,0.121c-3.415,0.121-2.606,5.508-1.953,7.588
	c0.247,0.785-2.636,1.608-2.897,0.774c-0.427-1.356-0.729-2.935-0.588-4.424C206.261,184.248,209.076,193.203,214.605,195.401z
	 M244.502,449.359c-1.31-8.506-2.503-17.027-3.62-25.561c-0.082-0.623,0.792-1.107,1.601-1.236c-0.809,0-1.617,0-2.426,0
	c-1.961,0-0.024-1.717,1.107-1.717c21.651,0,43.301,0,64.952,0c-0.678-2.193-1.355-4.385-2.035-6.578c-20.603,0-41.205,0-61.807,0
	c-0.689,0.801-2.398,1.006-2.6,0c-0.004,0-0.007,0-0.011,0c-0.583,0-0.445-0.197-0.05-0.426c-0.029-0.232-0.057-0.465-0.085-0.695
	c-0.255-0.061-0.51-0.104-0.764-0.172c-0.214-0.057-0.283-0.17-0.256-0.373c0.12-0.924,0.342-1.746,0.647-2.488
	c-2.032-16.469-3.959-32.947-6.199-49.389c-0.197-1.443,2.707-2.174,2.897-0.777c2.098,15.393,3.921,30.816,5.812,46.232
	c0.144-0.088,0.283-0.18,0.446-0.26c3.522-1.734,10.409-4.48,11.501-4.916c0.071-0.035,0.14-0.074,0.211-0.111l1.8-1.785
	c-1.239,0.135-1.175-0.473-0.606-0.953c-0.296-0.047-0.505-0.172-0.524-0.396c-0.729-8.875-5.242-16.879-6.42-25.721
	c-0.561-4.213-0.993-8.604-0.578-12.865c-5.151,0-10.303,0-15.454,0c-1.958,0,0.082-1.604,1.138-1.604c4.838,0,9.676,0,14.513,0
	c0.347-2.283,0.965-4.52,1.979-6.654c0.068-0.145,0.146-0.281,0.215-0.426c-0.062,0.01-0.123,0.016-0.179,0.016
	c-5.071,0-10.143,0-15.213,0c-0.022,1.363-2.701,1.994-2.9,0.607c-1.847-12.801-3.038-25.691-5.486-38.4
	c-1.511-0.246-0.888-2.043,0.638-2.043c0.005,0,0.011,0,0.016,0c0.588-0.301,1.35-0.344,1.785,0c14.558,0,29.116,0,43.673,0
	c0.573-1.352,1.122-2.715,1.611-4.104c0.026-0.074,0.073-0.143,0.128-0.209c-0.563-0.51-1.064-1.086-1.494-1.729
	c-0.192,0.078-0.409,0.129-0.652,0.129c-14.596,0-29.192,0-43.789,0c0.006,0.049,0.013,0.098,0.019,0.145
	c0.144,1.092-2.769,1.756-2.896,0.775c-0.048-0.365-0.096-0.732-0.146-1.1c-0.533-0.295-0.537-0.898-0.178-1.354
	c-0.721-5.488-1.442-10.978-2.162-16.467c-0.007-0.056-0.001-0.108,0.006-0.162c-2.681,0-5.363,0-8.044,0
	c5.503,53.885,13.58,107.463,19.57,161.292c0.912,1.412,1.458,2.91,1.446,4.445C238.383,450.832,241.379,449.871,244.502,449.359z
	 M288.098,470.809c4.721,0,9.441,0,14.163,0c0.066-0.068,0.14-0.133,0.219-0.197c0.003-0.029,0-0.057,0.007-0.09
	c1.504-6.555,6.838-10.945,13.217-11.205c0.016-0.006,0.028-0.012,0.043-0.018c-0.218-0.348,0.621-0.898,1.399-1.156
	c-1.768-9.502-5.387-18.922-8.207-28.135c-0.76-2.482-1.526-4.965-2.292-7.445c-21.131,0-42.261,0-63.392,0
	c0.288,0.063,0.494,0.209,0.526,0.461c1.136,8.676,2.349,17.342,3.684,25.988c7.701-0.584,15.856,1.229,22.54,4.076
	C278.735,456.809,284.941,462.803,288.098,470.809z M336.167,472.006c-3.117,0-6.235,0-9.354,0
	c-0.401,0.328-0.957,0.594-1.412,0.594c-12.218,0-24.437,0-36.655,0c0.826,2.535,1.363,5.256,1.593,8.16c13.263,0,26.527,0,39.791,0
	C331.632,477.453,333.697,474.496,336.167,472.006z" fill="#0984E3"></path>
</svg>